<?xml version="1.0" standalone="no"?>
<!DOCTYPE svg PUBLIC "-//W3C//DTD SVG 1.1//EN" "http://www.w3.org/Graphics/SVG/1.1/DTD/svg11.dtd" >
<!--
2013-9-30: Created.
-->
<svg>
<metadata>
Created by iconfont
</metadata>
<defs>

<font id="iconfont" horiz-adv-x="1024" >
  <font-face
    font-family="iconfont"
    font-weight="500"
    font-stretch="normal"
    units-per-em="1024"
    ascent="896"
    descent="-128"
  />
    <missing-glyph />
    
    <glyph glyph-name="zhucedenglushoujihao" unicode="&#58919;" d="M721.446307 765.440675 302.577244 765.440675c-51.327892 0-93.086906-41.759014-93.086906-93.086906l0-744.707538c0-51.327892 41.759014-93.086906 93.086906-93.086906l418.869063 0c51.327892 0 93.086906 41.759014 93.086906 93.086906L814.533214 672.353769C814.533214 723.682685 772.774199 765.440675 721.446307 765.440675zM302.577244 718.897734l418.869063 0c25.663434 0 46.542941-20.879507 46.542941-46.543965l0-605.075643L256.034303 67.278126 256.034303 672.353769C256.034303 698.018227 276.91381 718.897734 302.577244 718.897734zM721.446307-118.89671 302.577244-118.89671c-25.663434 0-46.542941 20.879507-46.542941 46.542941l0 93.086906L767.989248 20.733137l0-93.086906C767.989248-98.017203 747.110765-118.89671 721.446307-118.89671zM564.384616-25.809804 459.661462-25.809804c-12.852708 0-23.271471-10.419786-23.271471-23.272495s10.418762-23.272495 23.271471-23.272495l104.723154 0c12.852708 0 23.272495 10.419786 23.272495 23.272495S577.237324-25.809804 564.384616-25.809804z"  horiz-adv-x="1024" />

    
    <glyph glyph-name="nianling" unicode="&#59322;" d="M950.421333 457.578667C950.421333 699.306667 753.770667 896 512 896 270.250667 896 73.578667 699.328 73.6 457.6c0-200.042667 137.045333-374.634667 328.746667-424.128-28.885333-92.992-90.816-118.826667-94.101333-120.106667-9.664-3.626667-15.381333-13.674667-13.525333-23.829333C296.576-120.576 305.429333-128 315.733333-128l392.512 0c0.170667 0 0.298667 0 0.426667 0 11.797333 0 21.376 9.578667 21.461333 21.354667 0 9.578667-6.293333 17.664-14.997333 20.373333-10.709333 5.226667-65.706667 35.818667-92.885333 119.893333C813.610667 83.285333 950.421333 257.834667 950.421333 457.578667zM643.925333-85.248 382.037333-85.248c25.664 26.112 52.842667 67.456 67.242667 129.450667 0.021333 0.170667 0.128 0.277333 0.170667 0.448 0.021333 0.106667-0.021333 0.192 0 0.298667 6.250667 27.178667 10.304 57.92 10.304 93.738667 0 112.725333-43.946667 193.6-85.376 244.8 22.058667-10.090667 47.978667-23.765333 77.184-42.090667 9.578667-5.994667 22.144-3.541333 28.736 5.632 20.266667 28.288 44.778667 48.064 67.328 61.738667-3.498667-7.957333-6.336-15.808-8.384-23.146667-7.125333-25.408-5.866667-46.122667 3.498667-61.717333 5.888-9.749333 18.538667-13.162667 28.501333-7.637333 19.584 10.666667 40.426667 16.725333 59.84 20.053333-33.877333-34.325333-66.88-94.336-66.88-197.632 0-35.562667 4.245333-66.197333 10.752-93.376 0.042667-0.192-0.042667-0.362667 0-0.533333 0.064-0.277333 0.256-0.469333 0.32-0.746667C590.229333-17.344 618.090667-58.922667 643.925333-85.248zM612.309333 75.136c-3.264 19.114667-5.312 40.042667-5.312 63.509333 0 172.181333 101.866667 198.912 106.005333 199.914667 10.048 2.304 17.045333 11.349333 16.661333 21.589333-0.341333 10.218667-7.957333 18.816-18.090667 20.373333-1.322667 0.234667-68.330667 9.834667-132.949333-14.250667 0.448 2.410667 1.088 4.970667 1.834667 7.786667 8.106667 29.226667 29.674667 59.306667 39.658667 64.554667 9.344 4.949333 13.674667 15.957333 10.218667 25.962667-3.498667 10.005333-13.909333 15.893333-24.170667 13.952-3.712-0.682667-86.485333-17.130667-148.330667-90.901333-100.586667 59.968-161.877333 66.410667-164.565333 66.666667-9.728 0.874667-18.944-4.928-22.186667-14.229333-3.242667-9.258667 0.277333-19.584 8.512-24.938667 5.632-3.648 137.450667-91.797333 137.450667-276.458667 0-23.509333-1.834667-44.565333-4.928-63.616-172.565333 44.949333-295.808 202.304-295.808 382.549333 0 218.154667 177.472 395.669333 395.648 395.669333 218.176 0 395.648-177.493333 395.648-395.669333C907.605333 277.546667 784.554667 120.256 612.309333 75.136z"  horiz-adv-x="1024" />

    
    <glyph glyph-name="xingbie" unicode="&#59384;" d="M347.093333 550.4 619.754667 823.04l0-206.656c0-11.776 9.557333-21.354667 21.376-21.354667 11.797333 0 21.376 9.578667 21.376 21.376L662.506667 896l-21.248 0c-0.085333 0-0.170667 0-0.256 0L382.890667 896c-11.797333 0-21.376-9.557333-21.354667-21.376 0-11.776 9.557333-21.354667 21.354667-21.354667l206.634667 0L316.138667 579.861333c-0.661333-0.661333-0.917333-1.514667-1.472-2.218667-32.192 21.653333-70.912 34.325333-112.533333 34.325333C90.666667 611.968 0 521.28 0 409.834667c0-111.466667 90.666667-202.176 202.133333-202.176 111.445333 0 202.112 90.709333 202.133333 202.176C404.266667 464.448 382.4 513.984 347.093333 550.4zM202.133333 250.410667c-87.872 0-159.402667 71.530667-159.402667 159.424 0 87.872 71.530667 159.381333 159.402667 159.381333s159.381333-71.509333 159.402667-159.381333C361.536 321.941333 290.005333 250.410667 202.133333 250.410667zM821.866667 534.485333c-111.466667 0-202.154667-90.688-202.154667-202.133333 0-48.042667 16.917333-92.181333 45.034667-126.912l-165.674667-165.674667-101.098667 101.098667c-8.362667 8.384-21.845333 8.384-30.208 0-8.362667-8.362667-8.362667-21.845333 0-30.208l101.098667-101.098667L367.786667-91.52c-8.362667-8.362667-8.362667-21.845333 0-30.229333C371.946667-125.909333 377.408-128 382.890667-128c5.461333 0 10.922667 2.090667 15.104 6.250667l101.098667 101.098667 101.098667-101.098667C604.352-125.909333 609.813333-128 615.296-128c5.461333 0 10.922667 2.090667 15.104 6.250667 8.362667 8.384 8.362667 21.866667 0 30.229333l-101.077333 101.077333 165.674667 165.674667c34.730667-28.096 78.848-45.013333 126.890667-45.013333 111.445333 0 202.133333 90.709333 202.133333 202.154667S933.312 534.485333 821.866667 534.485333zM821.866667 172.949333c-87.872 0-159.424 71.552-159.424 159.402667 0 87.872 71.552 159.402667 159.424 159.402667s159.402667-71.530667 159.402667-159.402667C981.269333 244.501333 909.76 172.949333 821.866667 172.949333z"  horiz-adv-x="1025" />

    
    <glyph glyph-name="jiantou" unicode="&#58954;" d="M151.476947 696.446082l718.53082 0c39.763632 0 71.922053-31.909757 71.922053-71.675436 0-18.485003-7.095605-35.205826-18.486026-47.872311L568.114019 102.772944c-23.810289-31.400151-68.641333-37.993313-100.29731-14.183024-5.570879 4.052293-10.384511 8.873088-14.183024 14.190187L94.235245 581.958584c-23.547299 31.407314-17.217127 76.479859 14.436804 100.041484 12.922311 9.881045 27.864628 14.43885 42.804898 14.43885l0 0L151.476947 696.446082zM151.476947 696.446082"  horiz-adv-x="1024" />

    
    <glyph glyph-name="15xiayiye" unicode="&#58973;" d="M384 768c16.384 0 32.768-6.272 45.248-18.752l320-320c25.024-25.024 25.024-65.472 0-90.496l-320-320c-25.024-25.024-65.472-25.024-90.496 0s-25.024 65.472 0 90.496L613.504 384 338.752 658.752c-25.024 25.024-25.024 65.472 0 90.496C351.232 761.728 367.616 768 384 768z"  horiz-adv-x="1024" />

    
    <glyph glyph-name="zhucedenglumima" unicode="&#58923;" d="M791.261743 523.629848 325.827211 523.629848l0 93.08793c0 102.656808 83.517004 186.173813 186.173813 186.173813 102.656808 0 186.173813-83.517004 186.173813-186.173813 0-12.852708 10.419786-23.271471 23.272495-23.271471s23.272495 10.418762 23.272495 23.271471c0 62.162381-24.207367 120.603703-68.159697 164.557057-43.954378 43.953354-102.394675 68.159697-164.558081 68.159697s-120.603703-24.206343-164.558081-68.159697-68.159697-102.394675-68.159697-164.557057l0-93.08793-46.543965 0c-76.99235 0-139.630872-62.637497-139.630872-139.629848l0-325.804684c0-76.991326 62.638521-139.629848 139.630872-139.629848l558.522462 0c76.99235 0 139.630872 62.638521 139.630872 139.629848L930.893638 384C930.892615 460.991326 868.254093 523.629848 791.261743 523.629848zM884.348649 58.194292c0-51.327892-41.75799-93.085882-93.086906-93.085882L232.739281-34.891591c-51.327892 0-93.086906 41.75799-93.086906 93.085882L139.652375 384c0 51.327892 41.759014 93.086906 93.086906 93.086906l558.522462 0c51.328916 0 93.086906-41.759014 93.086906-93.086906L884.348649 58.194292zM512.001024 384c-64.160121 0-116.359401-52.198256-116.359401-116.358377 0-56.23367 40.098156-103.275278 93.202613-114.042186-0.075773-0.761824-0.115707-1.534912-0.115707-2.317215l0-69.815436c0-12.852708 10.418762-23.272495 23.271471-23.272495 12.852708 0 23.271471 10.419786 23.271471 23.272495l0 69.815436c0 0.782303-0.039934 1.555391-0.114683 2.318239 53.103434 10.765884 93.20159 57.807492 93.20159 114.041162C628.359401 331.80072 576.160121 384 512.001024 384zM512.001024 197.826187c-38.496687 0-69.815436 31.318749-69.815436 69.815436s31.318749 69.815436 69.815436 69.815436c38.495663 0 69.814412-31.318749 69.814412-69.815436S550.496687 197.826187 512.001024 197.826187z"  horiz-adv-x="1024" />

    
    <glyph glyph-name="zhucedengluyanzhengma" unicode="&#58924;" d="M512-77.47489l-7.959218 2.896774c-152.172297 55.387882-275.543755 165.759182-347.38765 310.784259-71.535684 144.400463-85.033485 308.712794-38.007236 462.669848l5.021485 16.43963 17.19019 0.033791c130.214563 0.253941 253.541991 43.009266 356.648317 123.645879l14.356901 11.227688 14.341542-11.249192c102.785827-80.621254 226.212579-123.36941 356.939121-123.624376l17.19019-0.033791 5.020461-16.43963c47.027273-153.957054 33.528448-318.269385-38.006212-462.669848C795.502973 91.181066 672.131514-19.190234 519.960242-74.578116L512-77.47489zM158.461441 669.081915C79.306493 380.749961 231.908852 78.638617 512-27.879533c280.092172 106.519174 432.693507 408.62847 353.538559 696.9594-65.102162 1.911728-128.931545 13.780413-189.993172 35.348019-58.607202 20.701339-113.600861 49.931215-163.722532 86.997434-50.193348-37.029357-105.139904-66.235682-163.580202-86.923709C287.200482 682.893046 223.43868 671.00081 158.461441 669.081915zM469.433084 215.280558c-5.956358 0-11.910668 2.272161-16.456013 6.816482L321.346375 353.727735c-9.087618 9.087618-9.087618 23.823383 0 32.911002 9.088642 9.087618 23.823383 9.087618 32.912026 0L469.434108 271.463031l246.851456 246.828929c9.088642 9.088642 23.823383 9.087618 32.912026-0.001024 9.087618-9.088642 9.087618-23.823383-0.001024-32.911002L485.888073 222.096016C481.343752 217.552719 475.387394 215.280558 469.433084 215.280558z"  horiz-adv-x="1024" />

    
    <glyph glyph-name="zhucedengluyonghuming" unicode="&#58926;" d="M928.382896 104.478172c-16.965943 46.689367-41.579822 89.948478-73.155583 128.575208-51.760002 63.320477-120.315971 111.082951-196.762552 137.862498 12.559856 8.716946 24.437758 18.60837 35.477038 29.648675 48.352273 48.351249 74.981299 112.635269 74.981299 181.013069 0 68.3778-26.629026 132.662844-74.981299 181.013069-48.351249 48.349201-112.634245 74.976179-181.00795 74.976179-68.3778 0-132.662844-26.626978-181.012045-74.976179s-74.976179-112.634245-74.976179-181.013069c0-68.3778 26.626978-132.662844 74.976179-181.012045 10.997298-10.997298 22.827073-20.858004 35.334708-29.549351-76.436342-26.701727-144.996406-74.372044-196.810678-137.613676-31.667918-38.653353-56.356545-81.956494-73.376758-128.70525-17.616156-48.38504-26.548133-99.258295-26.548133-151.205681 0-12.852708 10.419786-23.272495 23.272495-23.272495s23.271471 10.419786 23.271471 23.272495c0 184.927657 130.697871 347.138828 311.032057 386.437274 26.902422-9.421428 55.490277-14.340518 84.837909-14.340518 29.29541 0 57.834115 4.902706 84.696603 14.293416 180.095604-39.415177 310.672648-201.692905 310.672648-386.391196 0-12.852708 10.419786-23.272495 23.272495-23.272495s23.272495 10.419786 23.272495 23.272495C954.847064 5.358111 945.942734 56.157641 928.382896 104.478172zM303.487542 581.576598c0 115.489037 93.95727 209.446307 209.445283 209.446307 115.488014 0 209.445283-93.95727 209.445283-209.446307 0-115.489037-93.95727-209.445283-209.445283-209.445283C397.444811 372.131314 303.487542 466.08756 303.487542 581.576598z"  horiz-adv-x="1024" />

    
    <glyph glyph-name="biaoti" unicode="&#58927;" d="M116.181404 762.277854 116.181404 454.866575 201.417293 454.866575 201.417293 762.277854 317.598697 762.277854 317.598697 832 0 832 0 762.277854 116.181404 762.277854ZM412.356282 770.200826 412.356282 832 335.263948 832 335.263948 770.200826 412.356282 770.200826ZM335.263948 727.944979 335.263948 454.866575 412.356282 454.866575 412.356282 727.944979 335.263948 727.944979ZM550.003263 727.944979 550.003263 809.815681 472.91093 809.815681 472.91093 727.944979 426.221206 727.944979 426.221206 677.766163 472.91093 677.766163 472.91093 516.66575C472.91093 502.932531 475.263489 491.840483 479.968678 483.389271 484.673868 474.93806 491.098164 468.423682 499.241762 463.845942 507.385359 459.268203 516.795596 456.187078 527.472757 454.602476 538.149917 453.017874 549.4603 452.225585 561.404242 452.225585 569.004932 452.225585 576.786475 452.401649 584.749103 452.753782 592.711731 453.105916 599.950376 453.810173 606.465253 454.866575L606.465253 512.968363C602.845877 512.264095 599.045588 511.735903 595.064275 511.383769 591.082961 511.031635 586.92074 510.855571 582.577488 510.855571 569.547733 510.855571 560.86136 512.968342 556.518108 517.193948 552.174856 521.419553 550.003263 529.870638 550.003263 542.547455L550.003263 677.766163 606.465253 677.766163 606.465253 727.944979 550.003263 727.944979ZM624.673409 832 624.673409 454.866575 701.765741 454.866575 701.765741 832 624.673409 832ZM930.620557 620.720771 805.209786 620.720771C805.571725 626.002778 806.748006 631.988963 808.738662 638.679505 810.729318 645.370047 814.167674 651.708361 819.05383 657.694636 823.939994 663.68091 830.454771 668.698742 838.598368 672.74828 846.741965 676.79782 856.966547 678.822559 869.272429 678.822559 888.09319 678.822559 902.118061 673.892759 911.347469 664.033012 920.576883 654.173266 927.001178 639.735996 930.620557 620.720771L930.620557 620.720771ZM805.209786 573.182943 1007.71289 573.182943C1009.16064 594.310972 1007.350976 614.558363 1002.283853 633.925722 997.216723 653.293082 988.982765 670.54738 977.581728 685.689133 966.180691 700.830887 951.612922 712.89129 933.877978 721.870701 916.143034 730.850114 895.33193 735.339752 871.444045 735.339752 850.089722 735.339752 830.635866 731.642403 813.081888 724.247593 795.527917 716.852783 780.417248 706.729087 767.749427 693.876204 755.081613 681.02332 745.30944 665.793761 738.432627 648.18707 731.555808 630.58038 728.117453 611.565439 728.117453 591.141678 728.117453 570.013649 731.465325 550.64658 738.161171 533.03989 744.857018 515.433199 754.357741 500.291673 766.663622 487.614856 778.969498 474.938038 793.98969 465.166472 811.724634 458.299862 829.459578 451.433253 849.36585 448 871.444045 448 903.29456 448 930.439475 455.042571 952.87961 469.127923 975.319744 483.213276 991.968627 506.629823 1002.826752 539.378267L934.963782 539.378267C932.430221 530.927055 925.55351 522.916131 914.33344 515.345254 903.113376 507.774378 889.721882 503.988996 874.158566 503.988996 852.442304 503.988996 835.793421 509.446988 824.211418 520.363136 812.629414 531.279284 806.295597 548.885711 805.209786 573.182943ZM0 320 1024 320 1024 256 0 256 0 320ZM0 128 1024 128 1024 64 0 64 0 128ZM0-64 768-64 768-128 0-128 0-64Z"  horiz-adv-x="1024" />

    
    <glyph glyph-name="youxiang" unicode="&#58880;" d="M818.97651 831.775256 204.713428 831.775256c-113.073288 0-204.714452-93.713358-204.714452-209.238488l0-413.642878c0-115.52513 91.641163-208.357422 204.714452-208.357422l614.262058 0c113.134687 0 204.771757 92.833315 204.771757 208.357422L1023.747243 622.536768C1023.748267 738.060875 932.110173 831.775256 818.97651 831.775256zM709.783599 413.579689l249.786996 150.083204 0-296.587905L709.783599 413.579689zM204.713428 767.973138l614.262058 0c72.988338 0 133.375683-58.618049 139.984195-132.059712L511.875157 367.228011 64.50206 636.087389C71.221088 709.44821 131.840724 767.973138 204.713428 767.973138zM63.87375 563.845041l250.091942-150.266375L63.87375 266.896932 63.87375 563.845041zM818.97651 64.582133 204.713428 64.582133c-72.79391 0-133.36238 57.398268-140.190903 130.530892l309.642223 181.605128c0.189312 0.11461 0.370437 0.23843 0.555655 0.356111l121.31295-72.890101c4.840238-2.889817 10.308787-4.397147 15.84078-4.397147 5.529947 0 10.997472 1.50733 15.838733 4.397147l121.314996 72.891124c0.186242-0.118704 0.367367-0.242524 0.557702-0.357134l309.352627-181.435259C952.219163 122.069429 891.884007 64.582133 818.97651 64.582133z"  horiz-adv-x="1040" />

    
    <glyph glyph-name="liuyan" unicode="&#59021;" d="M854.4 814.4 165.6 814.4c-56.8 0-103.2-46.4-103.2-103.2L62.4 160c0-56.8 46.4-103.2 103.2-103.2l96.8 0 0 0L392 56.8l93.6-93.6c7.2-7.2 15.2-10.4 24.8-10.4 8.8 0 17.6 3.2 24.8 10.4l92.8 93.6 227.2 0c56.8 0 103.2 46.4 103.2 103.2L958.4 711.2C957.6 768 911.2 814.4 854.4 814.4zM888.8 160c0-19.2-15.2-34.4-34.4-34.4L613.6 125.6c-9.6 0-17.6-4-24.8-10.4l-79.2-79.2-79.2 79.2c-5.6 5.6-12 8.8-19.2 9.6l0 0.8L268.8 125.6l-6.4 0L165.6 125.6c-19.2 0-34.4 15.2-34.4 34.4L131.2 711.2c0 19.2 15.2 34.4 34.4 34.4l688.8 0c19.2 0 34.4-15.2 34.4-34.4L888.8 160zM320 452.8m-52 0a6.5 6.5 0 1 0 104 0 6.5 6.5 0 1 0-104 0ZM527.2 452.8m-52 0a6.5 6.5 0 1 0 104 0 6.5 6.5 0 1 0-104 0ZM733.6 504.8c-28.8 0-52-23.2-52-52 0-28.8 23.2-52 52-52 28 0 52 23.2 52 52C785.6 481.6 762.4 504.8 733.6 504.8z"  horiz-adv-x="1024" />

    
    <glyph glyph-name="zaicishurumima" unicode="&#59038;" d="M645.026881 511.040672l-31.41481 0L613.612072 548.79984c0 59.248126-24.251824 115.017088-68.253023 156.97172-43.694214 41.647647-100.486459 64.67153-161.678825 64.67153s-119.007894-22.921555-162.702109-64.67153c-44.001199-42.05696-68.253023-97.723593-68.253023-156.97172l0-37.759169-30.289198 0c-32.131108 0-58.122514-25.991406-58.122514-58.122514l0-346.483861c0-32.131108 25.991406-58.122514 58.122514-58.122514l522.590986 0c32.131108 0 58.122514 25.991406 58.122514 58.122514L703.149395 452.918157C703.149395 485.049266 677.055661 511.040672 645.026881 511.040672zM207.675427 548.79984c0 44.001199 18.21445 85.648846 51.266513 117.165984 33.359049 31.824123 77.667233 49.424603 124.738283 49.424603s90.253622-17.60048 123.715-49.424603c33.052064-31.517138 51.266513-73.164785 51.266513-117.165984l0-37.759169-350.98631 0L207.675427 548.79984zM648.199061 106.434296c0-1.739582-1.432597-3.172179-3.172179-3.172179L122.435895 103.262117c-1.739582 0-3.172179 1.432597-3.172179 3.172179L119.263715 452.918157c0 1.739582 1.432597 3.172179 3.172179 3.172179l522.590986 0c1.739582 0 3.172179-1.432597 3.172179-3.172179L648.199061 106.434296zM383.884881 369.213551c-51.061857 0-89.537324-39.294094-89.537324-90.048966 0-50.754872 38.475467-90.048966 89.537324-90.048966 51.061857 0 90.560608 39.294094 90.560608 90.048966C474.445488 329.919456 434.946737 369.213551 383.884881 369.213551zM383.884881 241.917058c-20.465674 0-36.121915 16.679524-36.121915 37.247527 0 20.568002 15.656241 36.224243 36.121915 36.224243 20.465674 0 36.121915-15.656241 36.121915-36.224243C420.006795 258.596582 404.350555 241.917058 383.884881 241.917058zM856.437294 447.801739l-0.306985 0 0 12.177076c0 37.861497-10.232837 74.904367-29.675227 107.035475-18.930748 31.41481-45.740781 56.792245-77.462576 73.574098-13.405016 7.060658-30.084541 1.944239-37.145198-11.460777-7.060658-13.405016-1.944239-30.084541 11.460777-37.145198 22.921555-12.074748 42.261617-30.493854 56.075947-53.313081 14.223643-23.535525 21.795943-50.754872 21.795943-78.690517l0-12.177076-9.41421 0c-15.144599 0-27.526332-12.279404-27.526332-27.526332s12.279404-27.526332 27.526332-27.526332l64.773858 0c12.791046 0 23.637854-8.288598 23.637854-18.009793l0-229.317877c0-9.721195-10.846807-18.009793-23.637854-18.009793l-66.411112 0c-15.144599 0-27.526332-12.279404-27.526332-27.526332s12.279404-27.526332 27.526332-27.526332l66.411112 0c43.387229 0 78.588188 32.745078 78.588188 72.960128L935.127811 374.841611C935.025482 415.05666 899.824523 447.801739 856.437294 447.801739z"  horiz-adv-x="1024" />

    
    <glyph glyph-name="dianhua" unicode="&#58900;" d="M712.848 189.3312c-10.7888 2.9424-22.1136 4.5216-33.8336 4.5216-47.4528 0-88.92-25.6544-111.32-63.904-7.24-12.3072-19.784-20.7024-34.048-21.6352-5.9856-0.3952-12.0064-0.5744-18.064-0.5744-140.1344 0-256.1136 103.264-276.3632 237.888-2.5808 17.2944 5.5904 34.3376 20.5008 43.3792 37.344 22.6048 62.3248 63.6528 62.3248 110.5488 0 25.296-7.2752 48.8688-19.8192 68.7824-22.8672 36.2752-63.2224 60.3872-109.2048 60.3872-68.9568 0-125.2608-54.144-128.8448-122.2816-0.1072-2.296-0.1792-4.592-0.1792-6.8896 0-6.5664 0.5008-12.9888 1.4336-19.2672 20.9312-304.3744 274.1392-544.7744 583.4752-544.7744 6.8464 0 13.6912 0.144 20.4656 0.3952 3.1904-0.2512 6.3792-0.3952 9.6416-0.3952 9.1024 0 17.9552 0.9328 26.4848 2.7264 58.5632 12.2352 102.5376 64.1904 102.5376 126.4432C808.0384 124.2784 767.6832 174.44 712.848 189.3312M666.1168 287.1872c-19.7872 0-35.84 16.0528-35.84 35.84 0 98.9328-80.384 179.4336-179.2 179.4336-19.7872 0-35.84 16.0528-35.84 35.84s16.0528 35.84 35.84 35.84c138.344 0 250.88-112.6528 250.88-251.1136C701.9568 303.24 685.904 287.1872 666.1168 287.1872zM795.1264 308.7008c-19.7872 0-35.84 16.0528-35.84 35.84 0 158.2928-128.6128 287.0928-286.72 287.0928-19.7872 0-35.84 16.0528-35.84 35.84 0 19.7872 16.0528 35.84 35.84 35.84 197.6336 0 358.4-160.9536 358.4-358.7728C830.9664 324.7536 814.9136 308.7008 795.1264 308.7008zM924.16 330.2368c-19.7872 0-35.84 16.0528-35.84 35.84 0 217.6528-176.8672 394.7296-394.24 394.7296-19.7872 0-35.84 16.0528-35.84 35.84 0 19.7872 16.0528 35.84 35.84 35.84 256.8992 0 465.92-209.2304 465.92-466.4096C960 346.2896 943.9472 330.2368 924.16 330.2368z"  horiz-adv-x="1024" />

    
    <glyph glyph-name="github" unicode="&#60972;" d="M0 370.804687c0-223.59375 143.300781-413.691406 343.007813-483.496094 26.894531-6.796875 22.792969 12.402344 22.792969 25.390625l0 88.691406c-155.292969-18.203125-161.503906 84.609375-171.992188 101.699219-21.09375 35.996094-70.800781 45.195313-55.996094 62.304688 35.390625 18.203125 71.40625-4.609375 113.105469-66.308594 30.195313-44.707031 89.101563-37.207031 119.003906-29.707031 6.503906 26.894531 20.507813 50.898438 39.707031 69.609375-160.800781 28.808594-227.910156 126.992188-227.910156 243.808594 0 56.601563 18.691406 108.691406 55.292969 150.703125-23.300781 69.296875 2.207031 128.496094 5.605469 137.304688 66.503906 5.996094 135.507813-47.597656 140.898438-51.796875 37.792969 10.195313 80.898438 15.605469 129.101563 15.605469 48.496094 0 91.796875-5.605469 129.804688-15.898438 12.890625 9.804688 76.992188 55.800781 138.808594 50.195313 3.300781-8.808594 28.203125-66.699219 6.308594-135 37.109375-42.109375 55.996094-94.609375 55.996094-151.40625 0-116.992188-67.5-215.292969-228.808594-243.691406 26.894531-26.601562 43.59375-63.398438 43.59375-104.199219l0-128.808594c0.898437-10.292969 0-20.507813 17.207031-20.507813 202.597656 68.300781 348.496094 259.804688 348.496094 485.410156 0 282.910156-229.296875 511.992188-511.992188 511.992188C229.101563 882.796875 0 653.695313 0 370.804687L0 370.804687z"  horiz-adv-x="1025" />

    
    <glyph glyph-name="yincang" unicode="&#59234;" d="M939.77098 384.764988C935.152941 424.29942 882.42698 492.766871 801.711686 550.914008L758.02102 507.223341C831.10651 456.284361 877.387294 398.498635 879.816784 379.343812 874.937725 342.399498 710.957176 164.404204 503.105255 163.761694 502.784 163.781773 502.442667 163.781773 502.101333 163.781773 474.955294 163.821929 448.592314 167.0144 423.193098 172.39542L373.719843 122.942243C414.619608 110.855027 457.808314 103.586635 502.302118 103.5264L502.563137 103.5264 502.603294 103.546478C733.364706 103.847655 930.534902 295.476204 939.77098 373.741929 940.052078 375.448596 940.212706 377.19542 940.212706 378.9824L940.212706 379.303655 940.212706 379.604831C940.212706 381.371733 940.052078 383.098478 939.77098 384.764988ZM764.54651 641.529976C758.663529 647.412957 750.953412 650.344408 743.243294 650.344408 735.553255 650.344408 727.843137 647.412957 721.960157 641.529976L240.077804 159.647624C228.311843 147.881663 228.311843 128.827231 240.077804 117.061271 245.960784 111.17829 253.670902 108.226761 261.360941 108.226761 269.071059 108.226761 276.781176 111.17829 282.664157 117.061271L764.54651 598.943624C776.312471 610.709584 776.312471 629.764016 764.54651 641.529976ZM124.801506 379.235388C129.680565 416.179702 293.480408 593.954133 501.091388 594.817506 501.573271 594.797427 502.055153 594.777349 502.516957 594.777349 529.683075 594.757271 556.025976 591.5648 581.425192 586.18378L630.918525 635.677114C590.099075 647.744251 546.990682 654.992565 502.557114 655.0528 502.075231 655.0528 501.533114 655.032722 501.011075 655.012643 270.510682 654.149271 73.782212 462.701427 64.84731 384.676643 64.566212 383.010133 64.425663 381.323545 64.425663 379.616878L64.425663 379.295624 64.425663 378.974369C64.425663 377.267702 64.566212 375.601192 64.827231 373.974839 69.304722 334.480565 122.070839 265.912722 202.926682 207.685271L246.597271 251.355859C173.51178 302.314918 127.230996 360.100643 124.801506 379.235388ZM502.310149 230.373898C584.410855 230.373898 651.231875 297.174839 651.231875 379.295624 651.231875 385.981741 650.629522 392.52731 649.766149 398.972486L482.613208 231.839624C489.078463 230.976251 495.624031 230.373898 502.310149 230.373898ZM353.398463 379.295624C353.398463 372.609506 354.000816 366.063937 354.864188 359.618761L521.976973 526.751624C515.531796 527.594918 508.986227 528.197271 502.320188 528.197271 420.199404 528.197271 353.398463 461.396329 353.398463 379.295624Z"  horiz-adv-x="1024" />

    
    <glyph glyph-name="biaoji" unicode="&#58937;" d="M947.332876 574.024891 702.019775 819.340039c-15.163351 15.155165-39.759539 15.163351-54.933123 0-3.295046-3.295046-74.008574-75.53637-46.833655-170.547281L489.192551 537.726174c-60.721967 18.435884-217.759559 50.338479-333.376787-65.274656-15.168468-15.173584-15.168468-39.764656 0-54.93824l167.378102-167.379125L76.667124 3.60434c-15.168468-15.174608-15.168468-39.764656 0-54.93824 7.586792-7.582699 17.525142-11.375072 27.468608-11.375072s19.882839 3.793396 27.468608 11.375072L378.132106 195.195913l167.378102-167.380148c7.586792-7.581676 17.529235-11.375072 27.468608-11.375072 9.943466 0 19.881816 3.794419 27.468608 11.375072 115.612111 115.619274 83.715657 272.65175 65.273632 333.379856l111.065562 111.061468c95.025237-27.190269 167.254282 43.543725 170.546258 46.833655C962.501344 534.260236 962.501344 558.8554 947.332876 574.024891zM783.415596 552.520111c-14.817474 6.927783-32.375362 3.854794-43.945885-7.709589L593.633229 398.97711c-11.04352-11.04352-14.358009-27.729551-8.472975-42.197054 0.174985-0.436952 17.676591-44.046169 20.654412-100.501972 2.959402-56.104809-8.947789-104.181781-35.444257-143.453203L405.622204 277.576155c-0.00921 0.00921-0.013303 0.017396-0.021489 0.026606-0.00921 0.008186-0.017396 0.01228-0.026606 0.021489L240.825904 442.374502c104.037495 70.26839 237.759055 17.302061 243.856937 14.826684 14.510482-5.988388 31.191396-2.659573 42.291199 8.436136l145.831366 145.837506c11.561313 11.565407 14.642488 29.133527 7.710612 43.946908-13.58132 28.991288-8.615215 55.815213-0.052189 75.597769l178.540326-178.542372C839.198064 543.904896 812.379255 538.950048 783.415596 552.520111zM553.209564 342.294133c1.37123-3.053546 13.353123-30.720675 12.490475-61.154825-0.521886-18.430768-15.634072-33.021068-33.955346-33.021068-0.327458 0-0.654916 0.005117-0.986467 0.014326-18.762319 0.531096-33.542954 16.173354-33.006741 34.942837 0.355087 12.565177-4.674463 27.051099-6.643304 31.575136-7.462972 17.141402 0.284479 37.184901 17.389042 44.74304C525.57518 366.956835 545.552164 359.364927 553.209564 342.294133z"  horiz-adv-x="1024" />

    
    <glyph glyph-name="xingbienv" unicode="&#58890;" d="M510.887666 384m-446.708971 0a446.708971 446.708971 0 1 1 893.417942 0 446.708971 446.708971 0 1 1-893.417942 0ZM510.87948 317.097264c-123.673717 0-224.282113 100.607372-224.282113 224.282113s100.607372 224.282113 224.282113 224.282113 224.282113-100.607372 224.282112-224.282113-100.608396-224.282113-224.282112-224.282113z m0 364.80559c-77.486792 0-140.523477-63.036685-140.523477-140.523477s63.036685-140.523477 140.523477-140.523477 140.523477 63.036685 140.523477 140.523477-63.036685 140.523477-140.523477 140.523477zM510.87948-0.635217c-23.12058 0-41.878806 18.744923-41.878806 41.878806V358.97607c0 23.133883 18.758226 41.878806 41.878806 41.878806s41.878806-18.744923 41.878806-41.878806v-317.732481c0-23.133883-18.758226-41.878806-41.878806-41.878806zM669.752884 158.237163H352.033705c-23.12058 0-41.878806 18.744923-41.878806 41.878806s18.758226 41.878806 41.878806 41.878807h317.719179c23.12058 0 41.878806-18.744923 41.878806-41.878807s-18.758226-41.878806-41.878806-41.878806z"  horiz-adv-x="1024" />

    
    <glyph glyph-name="xingbienan" unicode="&#58896;" d="M511.843434 384m-446.708971 0a446.708971 446.708971 0 1 1 893.417942 0 446.708971 446.708971 0 1 1-893.417942 0ZM424.111301 77.174939c-59.328223 0-115.140367 23.107277-157.101038 65.081251-86.620823 86.620823-86.620823 227.581252 0 314.215378 41.960671 41.973974 97.771791 65.081251 157.101038 65.081251 59.355853 0 115.140367-23.12058 157.101037-65.081251 41.960671-41.973974 65.081251-97.771791 65.081251-157.11434s-23.12058-115.140367-65.081251-157.101038-97.745185-65.081251-157.101037-65.081251z m0 360.620268c-36.97103 0-71.733765-14.409175-97.881285-40.543392-53.957913-53.984518-53.957913-141.804656 0-195.775872 26.14752-26.14752 60.910255-40.543392 97.881285-40.543391s71.733765 14.395872 97.881284 40.543391c26.14752 26.14752 40.543392 60.910255 40.543392 97.881285s-14.395872 71.733765-40.543392 97.894587c-26.146497 26.14752-60.909232 40.543392-97.881284 40.543392zM551.602973 384.983397c-10.715039 0-21.430078 4.090155-29.609365 12.269442-16.358573 16.358573-16.358573 42.874483 0 59.219753L672.577209 607.056192h-42.833551c-23.12058 0-41.878806 18.744923-41.878806 41.878806s18.758226 41.878806 41.878806 41.878806h143.958716c16.931624 0 32.200376-10.210549 38.689161-25.847691 6.488785-15.650445 2.889817-33.67189-9.078773-45.641503L581.212338 397.252839c-8.179286-8.179286-18.894326-12.269441-29.609365-12.269442zM773.703397 607.056192h-143.958716c-23.12058 0-41.878806 18.744923-41.878806 41.878806s18.758226 41.878806 41.878806 41.878806h143.958716c23.12058 0 41.878806-18.744923 41.878806-41.878806s-18.758226-41.878806-41.878806-41.878806zM779.864724 456.949452c-23.12058 0-41.878806 18.744923-41.878806 41.878806V642.773671c0 23.133883 18.758226 41.878806 41.878806 41.878807s41.878806-18.744923 41.878806-41.878807v-143.945413c0-23.133883-18.758226-41.878806-41.878806-41.878806zM779.864724 456.949452c-23.12058 0-41.878806 18.744923-41.878806 41.878806V642.773671c0 23.133883 18.758226 41.878806 41.878806 41.878807s41.878806-18.744923 41.878806-41.878807v-143.945413c0-23.133883-18.758226-41.878806-41.878806-41.878806z"  horiz-adv-x="1024" />

    
    <glyph glyph-name="QQ" unicode="&#58895;" d="M135.72096 316.19072c-31.86688-76.7488-37.09952-149.9648-11.43296-163.584 17.63328-9.49248 45.3632 12.032 71.2704 51.44576 10.3424-42.93632 35.64032-81.73568 71.8848-112.9984-38.0672-14.35136-62.87872-37.82144-62.87872-64.34304 0-43.65824 67.25632-78.93504 150.21056-78.93504 74.8032 0 136.832 28.70784 148.26496 66.4064a426.30656 426.30656 0 0 0 17.87904 0c11.43808-37.69856 73.58976-66.4064 148.39296-66.4064 82.944 0 150.21056 35.39456 150.21056 78.93504 0 26.5216-24.81152 49.99168-62.88384 64.34816 36.2496 31.1296 61.66528 70.05696 71.8848 112.99328 25.9072-39.40864 53.51424-60.81536 71.15264-51.45088 25.66144 13.6192 20.55168 86.9632-11.43808 163.58912-25.04704 60.32896-59.1104 104.72448-85.0176 114.58048 0.36864 3.76832 0.60928 7.7824 0.60928 11.55072 0 23.23456-6.31808 44.88192-17.152 62.39744 0.24576 1.33632 0.24576 2.79552 0.24576 4.13696 0 10.7008-2.55488 20.79744-6.8096 29.43488-6.56896 156.7744-106.42432 281.20576-268.07296 281.20576S250.4192 695.0656 243.968 538.28608a67.56864 67.56864 0 0 1-6.8096-29.43488c0-1.3312 0.12288-2.79552 0.12288-4.13184-10.7008-17.51552-17.02912-39.04512-17.02912-62.39744 0-3.8912 0.12288-7.65952 0.4864-11.55584-25.78432-9.85088-59.96544-54.2464-85.0176-114.57536z"  horiz-adv-x="1024" />

    
    <glyph glyph-name="tag-m" unicode="&#58905;" d="M323.008 109.248c-52.928 0-96 43.072-96 96s43.072 96 96 96 96-43.072 96-96-43.072-96-96-96zM323.008 237.248c-17.064-0.787-30.601-14.813-30.601-32s13.537-31.213 30.53-31.997c17.135 0.784 30.671 14.81 30.671 31.997 0 17.187-13.537 31.213-30.53 31.997zM416.096-31.040h-131.872c-159.936 0-186.912 59.232-186.912 192v140.8c0 74.24 14.304 96.224 70.72 150.944l327.040 319.904c36.576 35.488 105.888 35.392 142.304 0.096l263.072-256.032c18.336-17.792 28.864-43.552 28.864-70.656 0-27.296-10.656-53.28-29.248-71.264l-289.952-294.464c-65.504-64.608-112.864-111.328-194.016-111.328zM566.24 736.512c-10.496 0-20.16-3.52-26.528-9.696l-327.040-319.936c-49.952-48.48-51.36-54.528-51.36-105.12v-140.8c0-110.272 8.352-128 122.912-128h131.872c52.672 0 83.776 28.48 149.088 92.896l26.56 26.048 263.232 268.224c6.393 6.422 10.346 15.279 10.346 25.058 0 0.292-0.004 0.583-0.011 0.873 0.001 9.845-3.423 18.837-9.471 24.693l-263.072 256.032c-6.336 6.176-16.032 9.728-26.528 9.728z"  horiz-adv-x="1024" />

    
    <glyph glyph-name="CSS" unicode="&#59165;" d="M911.8 814.7c16.7 0 31.4-14.6 31.4-31.4v-800.9c0-16.7-14.7-31.4-31.4-31.4H110.9c-16.7 0-31.4 14.6-31.4 31.4V783.3c0 16.7 14.6 31.4 31.4 31.4h800.9m0 68.1H110.9c-54 0-99.5-44.5-99.5-99.5v-800.9c0-54 44.5-99.5 99.5-99.5h800.9c54 0 99.5 44.5 99.5 99.5V783.3c0 54-44.6 99.5-99.5 99.5M386.5 289c-13.4 0-24-8.6-31-15.2-29.3-28.2-72.5-27.2-103.7-14-14 6-25.5 14.1-35.2 25-9.9 11.1-17.7 24.9-23.2 41-5.7 16.7-8.5 36.1-8.5 57.6 0 15.4 2.7 31.3 7.9 47.2 5.2 15.8 12.7 30.3 22.1 43 9.2 12.2 20.3 22.4 33 30.1 18.9 11.5 43.6 14.4 64.8 5.9 9.3-3.7 17.7-7.8 25.2-12.5 8-4.9 14.8-9.4 20.6-13.5 10.5-7.3 18.2-10.4 26-10.4 19.7 0 33.5 13.2 33.5 32 0 11-5 21.7-15.7 32.5-32 28.9-70 43.5-113.3 43.5-26.3 0-50.6-6-72.4-18-21.1-11.6-39.3-27-54-45.8-14.4-18.4-25.8-39.6-33.8-63-8-23.3-12-47.3-12-71.2 0-29.9 4.2-57.3 12.5-81.3 8.5-24.8 20.9-46.1 36.8-63.5 16.1-17.7 35.9-31.3 58.7-40.5 22.4-9 47.5-13.6 74.9-13.6 14.7 0 29.3 2.3 43.1 6.7 13.2 4.2 25.3 9.4 35.6 15.5 10.6 6.1 19.4 12.7 26.2 19.5 6.4 6.3 14.8 16.2 14.8 29.1 0 7.8-2.8 15.3-7.9 21.8-6.3 7.8-15.2 12.1-25 12.1M635.7 381.9c-8.2 8.8-18.1 16.8-29.4 23.5-10.2 6.1-21.1 11.9-32.8 17.2-11.5 5.1-22.1 10-31.6 14.6-8.5 4.1-15.5 8.4-21.1 12.9-4.5 3.5-8 7.6-10.5 12.2-2.1 3.7-3.1 8.7-3.1 15 0 14.5 5.6 21.1 9.9 24.8 11.5 10 31 14.1 51.8 5.4 8.1-3.4 14.9-7 19.7-10.3 7.4-5.5 15-9 22.5-10.7 13.7-3.2 27 2.2 34.1 14.1 8 13.6 6.8 29.2-2.9 41.6-6.1 7.8-14.4 14.5-25.4 20.3-9.8 5.2-21.2 9.3-34.1 12.1-27.5 6.1-54 6-77.6-3.2-12.6-5-23.9-11.8-33.6-20.4-9.9-8.9-17.9-19.6-23.8-31.9-6-12.7-9-26.8-9-41.9 0-17.7 3-32.9 8.8-45.2 5.8-12.2 13.9-22.7 24.2-31.6 9.4-8 20.6-15.1 33.4-21 11.3-5.4 23.7-11 37.6-17 7.4-3.1 14.7-7 21.9-11.4 6.6-4.1 12.2-8.6 17-13.7 4.5-4.8 8.1-10.1 10.8-16 2.4-5.1 3.5-10.8 3.5-17.4 0-6.3-1.3-12.1-4-17.6-3.1-6.3-7.1-11.7-12.2-16.6-5-4.7-10.6-8.4-17-11.1-6.3-2.6-12.7-3.9-19.4-3.9-20.8 0-38.9 5.2-55.3 16-7.7 5-14.2 8.1-20.1 9.8-12.8 3.7-25.5-0.2-33.7-10.5-6.9-8.3-9.5-18.4-7.3-28.5 4.1-19 23.8-30.8 40.4-38.8 11-5.4 23-9.4 35.9-12.1 12.5-2.6 25.3-3.9 38.2-3.9 16 0 31.6 3.1 46.5 9.4 14.5 6.1 27.5 14.3 38.6 24.5 11.5 10.5 20.7 23 27.4 37.4 6.8 14.6 10.2 30.4 10.2 47s-2.5 31.4-7.5 43.8c-5.3 12.6-12.3 23.7-21 33.1M898.3 348.8c-5 12.6-12 23.7-20.8 33.2-8.3 8.9-18.1 16.7-29.3 23.5-10.2 6.2-21.1 11.9-32.9 17.2-11.5 5.1-22.1 10.1-31.6 14.6-8.4 4.1-15.5 8.5-21.1 12.9-4.6 3.6-8 7.5-10.5 12-2 3.8-3.1 8.9-3.1 15.1 0 14.5 5.6 21.1 9.9 24.8 11.4 9.9 30.9 14.1 51.8 5.4 8-3.3 14.8-6.9 19.7-10.2 7.4-5.5 15-9.1 22.5-10.8 14-3.1 27.1 2.3 34 14 8 13.6 7 29.2-2.8 41.7-6.1 7.8-14.5 14.5-25.4 20.2-9.6 5.2-21.1 9.3-34.2 12.2-27.5 6.1-54 6-77.6-3.2-12.5-4.9-23.8-11.7-33.7-20.5-9.9-8.9-17.8-19.6-23.7-31.9-6-12.6-9-26.7-9-41.9 0-18 2.9-32.9 8.8-45.1 5.7-12.2 13.8-22.8 24.2-31.6 9.4-8 20.6-15.1 33.4-21 11.3-5.4 23.7-11 37.6-17 7.4-3.2 14.7-7 21.9-11.4 6.6-4.1 12.2-8.6 17.1-13.8 4.5-4.7 8-9.9 10.7-15.8 2.5-5.3 3.6-11 3.6-17.5 0-6.4-1.3-12.1-4.1-17.7-3-6.2-7-11.7-12.1-16.5-5-4.8-10.6-8.4-17-11.1-6.3-2.6-12.7-3.9-19.4-3.9-20.8 0-38.9 5.2-55.3 15.9-7.7 5-14.2 8.1-20.1 9.8-13 3.8-25.5-0.2-33.7-10.4-6.9-8.3-9.5-18.4-7.3-28.4 4.1-19 23.7-30.8 40.4-38.9 11-5.3 23.1-9.4 35.9-12.1 12.5-2.6 25.3-3.9 38.2-3.9 16 0 31.6 3.1 46.4 9.4 14.6 6 27.6 14.3 38.6 24.5 11.5 10.4 20.7 23 27.4 37.4 6.8 14.5 10.2 30.4 10.2 47s-2.7 31.4-7.6 43.8"  horiz-adv-x="1024" />

    
    <glyph glyph-name="javascript" unicode="&#58884;" d="M859.556-127.57h-694.666c-41.948 0-76.068 34.12-76.068 76.052v871.004c0 41.953 34.12 76.083 76.068 76.083h541.701l229.033-239.421v-707.666c0-41.933-34.12-76.052-76.068-76.052zM164.89 845.368c-14.283-0.023-25.855-11.602-25.866-25.886l-0-871.005c0.023-14.273 11.592-25.836 25.865-25.851l694.668-0c14.274 0.015 25.843 11.578 25.866 25.849l0 687.526-200.274 209.367h-520.259zM910.525 620.974h-163.686c-41.948 0-76.068 34.12-76.068 76.052v173.44c0.001 10.494 6.44 19.484 15.582 23.235 2.932 1.198 6.141 1.859 9.506 1.859 7.127 0 13.562-2.965 18.137-7.729l214.664-224.403c4.307-4.498 6.958-10.611 6.958-17.343 0-3.566-0.744-6.959-2.085-10.031-3.862-8.875-12.709-15.081-23.006-15.081-0.001 0-0.002 0-0.002 0zM720.968 807.926v-110.899c0.017-14.275 11.59-25.842 25.865-25.851l104.94-0-130.806 136.75zM234.24 242.237l43.75 6.001c1.167-28.001 6.415-47.171 15.749-57.498 9.334-10.337 22.252-15.498 38.748-15.498 12.165 0 22.666 2.79 31.498 8.376 8.832 5.586 14.915 13.164 18.248 22.748 3.328 9.585 5.002 24.873 5.002 45.875v252.498h48.502v-249.748c0-30.669-3.712-54.42-11.126-71.25-7.419-16.835-19.169-29.67-35.251-38.502-16.087-8.832-34.959-13.251-56.627-13.251-32.169 0-56.791 9.252-73.876 27.75-17.075 18.499-25.283 46.003-24.617 82.499zM498.488 255.99l45.752 3.999c2.166-18.335 7.204-33.377 15.124-45.123 7.916-11.75 20.204-21.248 36.874-28.498 16.666-7.25 35.415-10.875 56.248-10.875 18.499 0 34.831 2.749 48.998 8.248 14.167 5.499 24.704 13.041 31.626 22.625 6.917 9.585 10.373 20.040 10.373 31.375 0 11.5-3.333 21.54-9.999 30.126-6.671 8.586-17.669 15.79-32.998 21.627-9.836 3.83-31.585 9.789-65.249 17.874-33.669 8.084-57.252 15.703-70.748 22.876-17.5 9.165-30.546 20.541-39.127 34.125-8.586 13.583-12.877 28.79-12.877 45.624 0 18.499 5.248 35.789 15.749 51.876 10.501 16.082 25.83 28.288 45.998 36.623 20.163 8.33 42.578 12.498 67.251 12.498 27.167 0 51.123-4.372 71.875-13.123s36.705-21.627 47.877-38.625c11.167-16.998 17.167-36.25 18.002-57.748l-46.5-3.502c-2.499 23.163-10.962 40.663-25.375 52.5-14.418 11.832-35.712 17.751-63.877 17.751-29.332 0-50.708-5.376-64.123-16.123-13.42-10.752-20.127-23.711-20.127-38.876 0-13.169 4.751-24.003 14.249-32.502 9.329-8.499 33.705-17.208 73.124-26.127 39.414-8.914 66.452-16.712 81.126-23.373 21.33-9.836 37.079-22.292 47.252-37.376 10.163-15.084 15.252-32.461 15.252-52.127 0-19.502-5.586-37.873-16.748-55.127-11.172-17.249-27.208-30.664-48.123-40.248-20.92-9.58-44.462-14.377-70.625-14.377-33.172 0-60.959 4.833-83.374 14.5-22.42 9.667-40.003 24.212-52.751 43.628s-19.466 41.375-20.132 65.874z"  horiz-adv-x="1024" />

    
    <glyph glyph-name="tubiaozhizuomoban" unicode="&#58892;" d="M63.3 836.7h896.1v-896.1H63.3zM352.1 222.2H143.8V571.5h198.1v-38.8H190.8v-108.3h138.9v-38.8H190.8V261h161.4v-38.8zM616.2 320.3c0-31.3-9.9-56.2-29.6-74.6-19.8-18.4-46.7-27.6-80.7-27.6-34.1 0-60.6 9.5-79.7 28.6s-28.6 42.9-28.6 71.5v14.3h47v-12.3c0-20.4 6.1-36.1 18.4-47 12.3-10.9 26.6-16.3 42.9-16.3 21.8 0 37.8 5.8 48 17.4 10.2 11.6 15.3 25.5 15.3 41.9 0 13.6-6.1 26.2-18.4 37.8-12.3 11.6-30 22.1-53.1 31.7-32.7 12.3-56.2 25.9-70.5 40.9-14.3 15-21.4 32.7-21.4 53.1 0 28.6 9.9 51.7 29.6 69.4 19.7 17.7 43.2 26.6 70.5 26.6 35.4 0 60.9-10.6 76.6-31.7 15.6-21.1 23.5-43.9 23.5-68.4h-47c1.3 15-2.7 28.6-12.3 40.9-9.5 12.3-23.2 18.4-40.9 18.4-16.3 0-29.3-4.4-38.8-13.3-9.5-8.9-14.3-20.8-14.3-35.7 0-12.3 3.7-22.8 11.2-31.7 7.5-8.9 26.9-19.4 58.2-31.7 29.9-12.3 53.1-26.9 69.4-43.9 16.5-17.2 24.7-36.6 24.7-58.3zM663.8 343.7c1.3 19.7 5.1 36.4 11.2 50 6.1 13.6 15.3 30.6 27.6 51.1l83.7 130.7h47l-85.8-134.8c36.8 9.5 66 8.2 87.8-4.1 21.8-12.3 36.4-26.2 43.9-41.9s11.6-32.7 12.3-51.1c0.7-18.4-2-36.4-8.2-54.1-6.1-17.7-17-33.7-32.7-48-15.7-14.3-37.5-22.1-65.4-23.5-27.9-1.4-51.8 3.7-71.5 15.3-19.8 11.6-33.4 27.9-40.9 49-7.4 21.3-10.4 41.7-9 61.4z m63.3-67.4c12.3-13 28.6-20.1 49-21.4 20.4-1.4 37.4 5.4 51.1 20.4 13.6 15 20.4 36.8 20.4 65.4s-8.5 48.3-25.5 59.2c-17 10.9-36.1 15-57.2 12.3-21.1-2.7-36.4-13-46-30.6-9.5-17.7-13.6-36.4-12.3-56.2 1.4-19.8 8.2-36.1 20.5-49.1z"  horiz-adv-x="1024" />

    
    <glyph glyph-name="zhongbiao" unicode="&#58989;" d="M510.108916 649.015633c132.551795 0 238.628414-106.076619 238.628414-238.628414S642.660711 171.758804 510.108916 171.758804 271.480502 277.835423 271.480502 410.387219s106.076619 238.628414 238.628414 238.628414m0 53.03831c-159.114929 0-291.666724-132.551795-291.666724-291.666724S350.993987 118.720495 510.108916 118.720495 801.77564 251.27229 801.77564 410.387219 669.223845 702.053943 510.108916 702.053943zM510.108916 580.057035c-15.920289 0-26.475176-10.642845-26.475176-26.475176v-153.837485c0-15.920289 10.642845-26.475176 26.475176-26.475176 15.920289 0 26.475176 10.642845 26.475176 26.475176V553.581859c0 15.920289-10.554887 26.475176-26.475176 26.475176zM487.943652 413.025941c-8.180038-13.633396-4.661742-28.146367 8.971655-36.414362l86.46212-52.158736c13.633396-8.180038 28.146367-4.661742 36.414361 8.971655 8.180038 13.633396 4.661742 28.146367-8.971654 36.414361l-86.46212 52.158736c-13.633396 8.267995-28.146367 4.661742-36.414362-8.971654z"  horiz-adv-x="1024" />

    
    <glyph glyph-name="nodejs-copy-copy" unicode="&#58886;" d="M227.652 566.1320000000001c0 4.363-2.235 8.366-5.902 10.524l-97.786 57.716c-1.655 0.995-3.511 1.515-5.387 1.588l-1.012 0c-1.869-0.073-3.718-0.593-5.398-1.588l-97.791-57.716c-3.646-2.156-5.911-6.159-5.911-10.524l0.215-155.39c0-2.164 1.095-4.18 2.947-5.232 1.815-1.118 4.061-1.118 5.868 0l58.114 34.125c3.678 2.241 5.913 6.189 5.913 10.515l0 72.587c0 4.328 2.232 8.342 5.897 10.488l24.747 14.612c1.845 1.104 3.862 1.639 5.922 1.639 2.014 0 4.082-0.529 5.875-1.639l24.734-14.612c3.662-2.146 5.905-6.16 5.905-10.488l0-72.587c0-4.326 2.267-8.307 5.918-10.515l58.101-34.125c1.826-1.118 4.101-1.118 5.908 0 1.799 1.052 2.934 3.069 2.934 5.232L227.652 566.1320000000001M685.618 485.219c0-1.082-0.568-2.077-1.482-2.622l-33.586-19.842c-0.915-0.54-2.032-0.54-2.945 0l-33.593 19.842c-0.916 0.545-1.475 1.543-1.475 2.622l0 39.778c0 1.082 0.559 2.079 1.471 2.616l33.59 19.895c0.92 0.542 2.037 0.542 2.96 0l33.578-19.895c0.914-0.537 1.482-1.537 1.482-2.616L685.618 485.219M694.694 779.74c-1.834 1.049-4.063 1.025-5.877-0.063-1.799-1.088-2.903-3.074-2.903-5.221L685.914 620.5699999999999c0-1.509-0.797-2.916-2.065-3.67-1.278-0.763-2.856-0.763-4.143 0l-24.485 14.465c-3.659 2.169-8.156 2.161-11.802 0l-97.828-57.893c-3.657-2.163-5.911-6.154-5.911-10.486l0-115.813c0-4.328 2.254-8.321 5.907-10.496L643.4 378.74c3.662-2.169 8.166-2.169 11.817 0l97.843 57.937c3.653 2.172 5.904 6.167 5.904 10.496L758.964 735.859c0 4.385-2.312 8.435-6.057 10.574L694.694 779.74zM1017.118 526.027c3.648 2.173 5.881 6.159 5.881 10.481l0 28.065c0 4.319-2.232 8.31-5.881 10.476l-97.196 57.871c-3.652 2.18-8.175 2.18-11.837 0.016l-97.794-57.892c-3.659-2.167-5.902-6.16-5.902-10.493l0-115.775c0-4.355 2.28-8.372 5.962-10.525l97.184-56.787c3.581-2.104 7.984-2.117 11.577-0.067l58.786 33.504c1.873 1.066 3.031 3.072 3.039 5.252 0.014 2.185-1.115 4.201-2.963 5.295l-98.407 57.923c-1.847 1.076-2.977 3.085-2.977 5.254l0 36.287c0 2.152 1.124 4.164 2.958 5.244l30.632 18.111c1.82 1.077 4.067 1.077 5.894 0l30.646-18.111c1.827-1.08 2.957-3.089 2.957-5.244l0-28.548c0-2.169 1.13-4.167 2.961-5.259 1.831-1.073 4.085-1.066 5.913 0.019L1017.118 526.027M377.973 633.547c3.651 2.158 8.158 2.158 11.81 0l97.815-57.882c3.66-2.165 5.911-6.162 5.911-10.496l0-115.856c0-4.328-2.251-8.32-5.902-10.497l-97.818-57.929c-3.657-2.166-8.161-2.166-11.815 0l-97.792 57.929c-3.654 2.174-5.905 6.169-5.905 10.497L274.277 565.1759999999999c0 4.328 2.251 8.323 5.91 10.489L377.973 633.547M913.694 477.3L888.427 492.259 888.427 522.177 913.694 537.135 938.961 522.177 938.961 492.259Z"  horiz-adv-x="1024" />

    
    <glyph glyph-name="react" unicode="&#58888;" d="M856.210952 511.915129c-17.287475 6.606845-36.207076 12.817627-56.284398 18.475663 5.14446 20.225301 9.22695 39.71941 12.143015 57.981809 16.530169 103.437597-1.680001 176.173821-51.270507 204.803482-14.471514 8.356483-31.062616 12.595658-49.303253 12.595657-43.675683 0-96.822047-24.412248-153.689658-70.599228-14.362706-11.664258-29.204169-24.943233-44.141383-39.501793-14.954624 14.571618-29.796086 27.854945-44.141383 39.506146-56.871963 46.182628-110.02268 70.594876-153.69401 70.594875-18.240637 0-34.831738-4.239174-49.311957-12.595657-49.590506-28.62966-67.796324-101.365885-51.261803-204.79913 2.916065-18.262398 6.998555-37.76086 12.138662-57.986161-20.081674-5.658036-39.005627-11.87317-56.293102-18.480015-97.840494-37.403968-151.726755-89.536238-151.726755-146.799911 0-57.259321 53.886261-109.395943 151.731107-146.799912 17.27877-6.606845 36.207076-12.817627 56.28875-18.480015-5.135755-20.194835-9.218246-39.688944-12.138662-57.977456-16.538873-103.441949 1.666944-176.173821 51.261803-204.807834 14.471514-8.356483 31.062616-12.591306 49.303252-12.591306 43.675683 0 96.822047 24.407895 153.694011 70.594876 14.358354 11.659906 29.199816 24.943233 44.150087 39.510498 14.937214-14.558561 29.778677-27.837535 44.145735-39.506146 56.867611-46.182628 110.013975-70.599228 153.694011-70.599228 18.240637 0 34.827386 4.239174 49.303252 12.595658 49.590506 28.62966 67.796324 101.365885 51.266156 204.803482-2.920417 18.28416-7.002907 37.786974-12.138663 57.981808 20.05556 5.653683 38.979513 11.864466 56.280046 18.475663 97.844846 37.403968 151.731107 89.536238 151.731107 146.799912-0.004352 57.268026-53.890614 109.404648-151.73546 146.804263z m-144.98934 254.089325c11.368299 0 21.365613-2.44166 29.704687-7.255342 41.160033-23.76375 49.098693-107.415631 20.838981-218.609089-41.886873 9.614308-87.24691 16.69991-134.88757 21.069654-27.598157 39.070912-56.414968 74.812289-85.688774 106.288376 64.279638 62.630103 126.165491 98.506401 170.032676 98.506401zM339.392917 264.506639a1274.207042 1274.207042 0 0 1 32.172462-52.680664c-33.321478 3.995444-65.337255 9.440215-95.281321 16.212448 9.100733 29.304272 20.39069 59.753209 33.600027 90.61997a1270.298645 1270.298645 0 0 1 29.508832-54.151754zM276.28841 502.192013c29.95277 6.772233 61.968548 12.221357 95.276969 16.208096a1272.113569 1272.113569 0 0 1-32.176814-52.676312 1271.569527 1271.569527 0 0 1-29.50448-54.151754c-13.19628 30.853704-24.486237 61.298288-33.595675 90.61997z m54.765433-137.06809a1248.502151 1248.502151 0 0 0 42.770397 80.727112 1248.946089 1248.946089 0 0 0 48.554651 77.441098 1251.361635 1251.361635 0 0 0 91.281525 3.294718c30.81018 0 61.515905-1.109845 91.290229-3.29907a1247.53158 1247.53158 0 0 0 48.550299-77.436746 1249.651167 1249.651167 0 0 0 42.774749-80.735817 1247.727435 1247.727435 0 0 0-42.774749-80.740169 1247.414067 1247.414067 0 0 0-48.554651-77.441099c-29.769972-2.189225-60.475697-3.294718-91.285877-3.294718-30.805828 0-61.5072 1.105493-91.277172 3.294718a1250.034173 1250.034173 0 0 0-48.554651 77.441099 1247.422772 1247.422772 0 0 0-42.77475 80.748874z m356.869719-100.617284a1263.047655 1263.047655 0 0 1 29.513185 54.156106c13.209337-30.871113 24.503647-61.324402 33.604379-90.624322-29.944066-6.772233-61.959843-12.217005-95.285673-16.212448a1272.474813 1272.474813 0 0 1 32.168109 52.680664z m0.004352 201.22151a1271.969942 1271.969942 0 0 1-32.168108 52.67196c33.312773-3.991091 65.32855-9.440215 95.28132-16.212449-9.11379-29.326034-20.403747-59.774971-33.604379-90.619969a1268.884136 1268.884136 0 0 1-29.508833 54.160458z m-112.603614 99.089614c-20.712763 1.009742-41.43423 1.523317-61.663884 1.523317-20.225301 0-40.942417-0.513576-61.65518-1.523317 20.12955 26.871317 40.846665 51.866778 61.659532 74.381407 20.817219-22.527687 41.534334-47.518795 61.659532-74.381407zM286.394532 758.744759c8.339074 4.813683 18.332036 7.255343 29.704688 7.255343 43.867186 0 105.761744-35.876298 170.037028-98.510753-29.269454-31.467383-58.086265-67.208759-85.688774-106.284024-47.645013-4.369744-93.005049-11.455346-134.883218-21.065302-28.264064 111.193458-20.329757 194.840987 20.830276 218.604736z m-227.265883-393.629541c0 47.58408 68.470936 96.299767 178.889678 127.405906 12.61742-41.103453 29.16935-83.952192 49.216206-127.405906-20.042503-43.453714-36.594434-86.302453-49.216206-127.405906-110.418742 31.106139-178.889679 79.821826-178.889678 127.405906z m256.966218-400.884884c-11.368299 0-21.361261 2.44166-29.700335 7.255342-41.164386 23.76375-49.098693 107.415631-20.83898 218.609089 41.895578-9.618661 87.259967-16.704262 134.891922-21.069654 27.593805-39.062208 56.410616-74.807936 85.688774-106.279672-64.279638-62.638807-126.169843-98.515106-170.041381-98.515105z m135.914722 201.182339c20.712763-1.009742 41.425526-1.52767 61.650827-1.52767 20.229654 0 40.946769 0.513576 61.659532 1.52767-20.112141-26.849555-40.829256-51.845016-61.65518-74.381408-20.821571 22.527687-41.534334 47.518795-61.655179 74.381408z m288.912358-193.926997c-8.339074-4.813683-18.332036-7.255343-29.700335-7.255342-43.867186 0-105.757391 35.876298-170.037029 98.515105 29.278158 31.471735 58.094969 67.217464 85.688774 106.279672 47.645013 4.365392 93.009402 11.455346 134.891923 21.074007 28.264064-111.202163 20.325405-194.849691-20.843333-218.613442z m48.389262 266.223636c-12.626124 41.125215-29.182407 83.973954-49.22491 127.405906 20.051208 43.466771 36.603138 86.31551 49.220558 127.401554 110.401333-31.106139 178.880974-79.826179 178.880973-127.405906-0.004352-47.571023-68.479641-96.291062-178.876621-127.401554zM511.941243 365.197912m-88.439449 0a88.43945 88.43945 0 1 1 176.878899 0 88.43945 88.43945 0 1 1-176.878899 0Z"  horiz-adv-x="1024" />

    
    <glyph glyph-name="nodejs" unicode="&#59166;" d="M512 817.066667c-11.52 0-23.466667-2.986667-33.28-8.533334l-317.44-183.466666c-20.48-11.946667-33.28-34.133333-33.28-58.026667v-366.08c0-23.893333 12.8-46.08 33.28-58.026667l83.2-47.786666c40.533333-19.626667 54.186667-20.053333 72.96-20.053334 59.733333 0 94.293333 36.266667 94.293333 99.413334V535.893333c0 5.12-4.266667 9.386667-9.386666 9.386667H362.666667c-5.546667 0-9.813333-4.266667-9.813334-9.386667v-361.386666c0-28.16-29.013333-55.893333-75.52-32.426667L189.866667 192a11.093333 11.093333 0 0 0-4.693334 8.96V567.04c0 3.84 1.706667 7.253333 4.693334 8.96l317.44 183.04c2.56 1.706667 6.826667 1.706667 9.386666 0l317.44-183.04c2.986667-1.706667 4.693333-5.12 4.693334-8.96v-366.08c0-3.413333-1.706667-6.826667-4.693334-8.96l-317.44-183.04c-2.56-1.706667-6.826667-1.706667-9.813333 0L426.666667 57.6c-3.413333 1.28-6.826667 1.706667-8.96 0.426667-22.613333-12.8-26.88-15.36-47.786667-21.76-5.12-1.706667-13.226667-4.693333 2.986667-13.653334l105.813333-62.72c10.24-5.973333 21.333333-8.96 33.28-8.96s23.04 2.986667 33.28 8.96l317.44 183.04c20.48 11.946667 33.28 34.133333 33.28 58.026667V567.04c0 23.893333-12.8 46.08-33.28 58.026667l-317.44 183.466666c-9.813333 5.546667-21.333333 8.533333-33.28 8.533334M597.333333 554.666667c-90.453333 0-144.64-37.973333-144.64-101.973334 0-68.693333 53.76-88.746667 140.8-97.28 103.68-10.24 111.786667-25.6 111.786667-46.08 0-35.413333-28.586667-50.346667-95.146667-50.346666-84.48 0-102.4 20.906667-108.8 62.72a9.642667 9.642667 0 0 1-9.386666 7.68h-40.96c-5.12 0-8.96-3.84-8.96-9.386667 0-52.906667 29.013333-116.906667 168.106666-116.906667 100.266667 0 157.866667 39.68 157.866667 108.8 0 68.693333-46.08 86.613333-143.786667 99.84-98.56 12.8-108.373333 19.626667-108.373333 42.666667 0 19.2 8.533333 44.8 81.493333 44.8 64 0 89.173333-14.08 98.986667-58.026667 0.853333-4.266667 4.693333-7.253333 8.96-7.253333h41.386667c2.133333 0 4.693333 0.853333 6.4 2.986667 1.706667 1.706667 2.986667 4.266667 2.133333 6.826666C749.226667 519.68 698.88 554.666667 597.333333 554.666667z"  horiz-adv-x="1024" />

    
    <glyph glyph-name="html-copy" unicode="&#58887;" d="M112.198 815.391h799.677l-65.412-759.139-339.032-104.107-322.449 104.107-72.784 759.139zM752.494 585.9929999999999l19.347 115.158-515 0.923 33.168-345.482h335.348v-90.287l-112.396-39.617-117.006 41.457-7.367 48.829-92.13-0.922 13.82-121.609 197.155-69.1 207.29 65.412 26.714 278.229h-364.831l-9.212 117.004 385.099 0.001zM752.494 585.9929999999999z"  horiz-adv-x="1024" />

    
    <glyph glyph-name="fanhui" unicode="&#58916;" d="M710.153924 887.019603L266.007127 435.307476a81.118646 81.118646 0 0 1 0.861532-114.476097l446.192936-441.050666a26.922883 26.922883 0 0 1 37.853573 38.284339L304.722232 359.115718a27.27288 27.27288 0 0 0-0.323074 38.445877L748.545955 849.273722A26.922883 26.922883 0 1 1 710.180847 886.99268z"  horiz-adv-x="1024" />

    
    <glyph glyph-name="shenfenzheng" unicode="&#58917;" d="M768 167.384615v7.876923 11.815385c-11.815385 110.276923-122.092308 196.923077-256 196.923077s-244.184615-86.646154-256-192.984615v-23.63077c0-43.323077 35.446154-78.769231 78.769231-78.76923h354.461538c43.323077 0 78.769231 35.446154 78.769231 78.76923zM512-128C228.430769-128 0 100.430769 0 384S228.430769 896 512 896s512-228.430769 512-512-228.430769-512-512-512z m0 555.323077c94.523077 0 169.353846 74.830769 169.353846 169.353846S606.523077 769.969231 512 769.969231s-169.353846-78.769231-169.353846-173.292308 74.830769-169.353846 169.353846-169.353846z"  horiz-adv-x="1024" />

    
    <glyph glyph-name="sousuo" unicode="&#58930;" d="M474.453333 11.946667c-225.28 0-409.6 184.32-409.6 409.6s184.32 409.6 409.6 409.6 409.6-184.32 409.6-409.6-184.32-409.6-409.6-409.6z m0 68.266666c187.733333 0 341.333333 153.6 341.333334 341.333334s-153.6 341.333333-341.333334 341.333333-341.333333-153.6-341.333333-341.333333 153.6-341.333333 341.333333-341.333334z m252.586667-54.613333c-13.653333 13.653333-10.24 37.546667 3.413333 47.786667s37.546667 10.24 47.786667-3.413334l64.853333-78.506666c13.653333-13.653333 10.24-37.546667-3.413333-47.786667s-37.546667-10.24-47.786667 3.413333l-64.853333 78.506667z"  horiz-adv-x="1024" />

    
    <glyph glyph-name="shangyiye" unicode="&#58908;" d="M738.145698 680.291796L431.262916 384.051164 738.145698 87.605876c26.810033-25.786749 26.810033-67.741381 0-93.52813-26.707705-25.889078-70.197262-25.889078-96.904967 0L285.854302 337.184771c-26.707705 25.786749-26.707705 67.741381 0 93.52813l355.386429 343.107025c26.707705 25.889078 70.197262 25.889078 96.904967 0 26.707705-25.684421 26.707705-67.639053 0-93.52813z"  horiz-adv-x="1024" />

    
    <glyph glyph-name="lvyou" unicode="&#58928;" d="M512 896C229.376 896 0 666.624 0 384s229.376-512 512-512 512 229.376 512 512S794.624 896 512 896z m248.32-355.328l-112.64-112.64c2.048-33.792 5.632-94.208 8.704-144.384 3.072-53.248 5.12-82.944 5.12-84.992 0-5.12 0.512-17.92-10.752-31.744-10.752-12.8-34.816-38.4-35.84-39.424-7.168-7.168-16.384-10.752-25.088-10.24-4.096 0.512-14.848 2.56-20.48 16.384-2.56 6.656-39.424 106.496-58.368 157.696l-65.024-62.976v-79.36c0-4.608 0.512-14.848-16.384-34.816-7.168-7.168-14.848-10.752-22.016-10.752h-0.512c-7.68 0-14.848 4.096-18.432 10.752-1.024 1.536-7.168 11.776-15.872 25.088-13.824 22.016-32.768 52.736-39.424 62.976-39.424 23.552-87.552 54.784-91.648 57.856-5.632 4.608-9.216 11.264-8.704 18.944 0 5.12 2.048 12.288 9.216 19.456l1.536 1.536c17.92 15.36 27.648 16.896 33.792 16.896h1.024l1.024-3.584v3.584h29.696c13.312 0 28.672-0.512 39.936-0.512H358.4l62.976 64.512C368.64 400.384 268.8 437.76 262.656 440.32c-12.8 5.12-15.872 14.848-16.384 20.48-1.024 8.704 2.56 17.92 10.24 25.088 1.024 1.024 27.136 25.6 39.936 35.84 8.704 7.168 17.92 10.752 28.672 10.752h3.072c2.048 0 51.712-3.072 108.544-7.168 45.056-3.072 93.184-6.144 122.368-7.68l112.64 112.64c27.136 27.136 55.808 31.232 70.656 31.232 16.384 0 31.232-5.12 38.912-12.8s12.8-22.016 12.8-38.4c-2.048-13.312-6.144-41.984-33.792-69.632z"  horiz-adv-x="1024" />

    
    <glyph glyph-name="xingbie-nv" unicode="&#58901;" d="M554.424 182.143c177.825 21 315.792 172.154 315.792 355.63C870.216 735.622 709.84 895.988 512 895.988c-197.839 0-358.216-160.366-358.216-358.216 0-182.775 136.939-333.484 313.8-355.375v-67.208H250.388v-86.84h217.196v-156.338h86.84V28.35H771.62v86.84H554.424v66.953zM240.625 537.772C240.625 687.41 362.363 809.147 512 809.147c149.639 0 271.376-121.737 271.376-271.375 0-149.639-121.737-271.376-271.376-271.376-149.638 0-271.375 121.738-271.375 271.376z"  horiz-adv-x="1024" />

    
    <glyph glyph-name="xiangbianxunhuan" unicode="&#58883;" d="M142.72 662.912c0-78.089 84.533-126.894 152.16-87.85a101.44 101.44 0 0 1 50.72 87.85c0 78.089-84.533 126.894-152.16 87.85a101.44 101.44 0 0 1-50.72-87.85zM432.896 778.496c0-78.089 84.533-126.894 152.16-87.85a101.44 101.44 0 0 1 50.72 87.85c0 78.089-84.533 126.894-152.16 87.85a101.44 101.44 0 0 1-50.72-87.85zM771.136 662.912c0-41.04 44.427-66.689 79.968-46.17a53.313 53.313 0 0 1 26.656 46.17c0 41.04-44.427 66.689-79.968 46.17a53.313 53.313 0 0 1-26.656-46.17zM872.192 376c0-48.282 52.267-78.458 94.08-54.317A62.719 62.719 0 0 1 997.632 376c0 48.282-52.267 78.458-94.08 54.317A62.719 62.719 0 0 1 872.192 376zM735.296 87.04c0-63.752 69.013-103.597 124.224-71.721a82.818 82.818 0 0 1 41.408 71.721c0 63.752-69.013 103.597-124.224 71.721a82.818 82.818 0 0 1-41.408-71.721zM450.944-24.064c0-67.595 73.173-109.841 131.712-76.044a87.807 87.807 0 0 1 43.904 76.044c0 67.595-73.173 109.841-131.712 76.044a87.807 87.807 0 0 1-43.904-76.044zM151.424 89.152c0-78.483 84.96-127.534 152.928-88.293a101.952 101.952 0 0 1 50.976 88.293c0 78.483-84.96 127.534-152.928 88.293a101.952 101.952 0 0 1-50.976-88.293zM26.304 376c0-78.532 85.013-127.614 153.024-88.348A102.014 102.014 0 0 1 230.336 376c0 78.532-85.013 127.614-153.024 88.348A102.014 102.014 0 0 1 26.304 376zM548.338 673.667c11.86-2.11 18.296-11.863 26.146-19.245 79.462-74.712 158.694-149.669 237.989-224.56 5.865-5.538 11.952-10.868 17.508-16.701 8.642-9.071 8.101-20.51-0.957-29.52-7.288-7.25-18.492-6.619-27.196 1.6-80.83 76.31-161.537 152.746-242.563 228.843-15.295 14.364-10.594 14.425-26.19 0.082-66.036-60.731-131.701-121.867-197.435-182.928-2.516-2.337-4.365-5.398-6.524-8.122 3.433-0.673 6.846-1.784 10.3-1.928 7.143-0.297 14.304-0.003 21.456-0.096 13.576-0.175 24.303-6.532 24.19-24.152-0.471-73.365-0.093-146.736-0.029-220.105 0.008-9.849 0.554-10.402 10.719-10.402 100.371-0.002 200.743-0.005 301.115 0.001 10.28 0 10.794 0.552 10.794 11.052-0.007 63.456 0.027 126.909-0.056 190.364-0.014 8.371 0.924 15.778 9.035 20.819 12.726 7.906 29.107-1.076 29.522-14.034 0.155-4.839 0.615-9.675 0.616-14.512 0.044-60.662 0.05-121.324 0.011-181.984-0.007-10.37-0.026-20.75-0.481-31.106-0.63-14.343-6.765-20.166-21.399-20.211-38.528-0.122-77.059-0.044-115.588-0.047-79.6-0.003-159.202 0.032-238.802-0.072-9.186-0.013-18.035 0.735-22.119 10.312-1.898 4.459-2.194 9.858-2.204 14.832-0.128 72.685-0.084 145.367-0.082 218.052 0 11.227-0.242 11.439-11.736 11.43-19.151-0.016-38.309 0.306-57.45-0.127-9.823-0.223-17.254 2.987-21.358 11.9-3.603 7.829-0.524 17.433 7.3 24.711 20.773 19.311 41.628 38.531 62.422 57.818 48.7 45.167 97.391 90.342 146.066 135.535 20.094 18.653 40.02 37.489 60.321 55.912 3.379 3.065 8.296 4.438 12.503 6.593 1.387-0.004 2.769-0.004 4.156-0.004z m87.917-222.034l-89.017-88.755 0.847-1.888h116.618c0.173-0.59 0.347-1.18 0.525-1.772-68.769-49.196-137.537-98.394-206.305-147.592-0.308 0.251-0.616 0.499-0.922 0.75l59.056 118.443h-90.724c8.287 11.185 15.45 20.938 22.703 30.624 21.418 28.607 42.804 57.24 64.446 85.677 1.771 2.327 5.376 4.597 8.147 4.619 36.894 0.306 73.792 0.207 110.689 0.194 1.049 0 2.099-0.154 3.937-0.3z"  horiz-adv-x="1024" />

    
    <glyph glyph-name="huabi" unicode="&#59005;" d="M951.021299 685.708714L763.818374 875.407678c-27.456429 27.456429-72.385131 27.456429-99.84156 0l-132.290067-134.786106c-2.496039-2.496039-2.496039-2.496039-2.496039-4.992078L172.257131 373.703839c-2.496039-2.496039-7.488117-7.488117-7.488117-12.480195l-112.321755-349.44546c-2.496039-12.480195 0-24.96039 7.488117-32.448507 7.488117-7.488117 19.968312-12.480195 32.448507-7.488117l354.437538 107.329677 14.976234 7.488117 359.429616 366.917733c2.496039 2.496039 2.496039 2.496039 2.496039 4.992078l129.794028 129.794028c12.480195 12.480195 19.968312 29.952468 19.968312 49.92078 0 17.472273-7.488117 34.944546-22.464351 47.424741zM297.059081 181.508836h82.369287l14.976234-54.912858-262.084095-77.377209 84.865326 262.084095 47.424741-9.984156v-84.865326c0-7.488117 2.496039-17.472273 9.984156-22.464351 4.992078-7.488117 12.480195-12.480195 22.464351-12.480195z m-37.440585 187.202925L559.143176 670.73248l194.691042-197.187081-302.020719-307.012797-22.464351 79.873248h-99.84156v102.337599l-69.889092 19.968312z m648.97014 267.076173c0-2.496039 0-2.496039-2.496039-4.992078L796.266881 520.97014l-194.691042 197.187081 109.825716 112.321755c2.496039 2.496039 4.992078 2.496039 7.488117 0l187.202925-189.698964c0-2.496039 2.496039-2.496039 2.496039-4.992078zM49.95122-53.11883h923.53443v-74.88117H49.95122v74.88117z"  horiz-adv-x="1024" />

    
    <glyph glyph-name="vuejs" unicode="&#58889;" d="M634.334 800.517l-124.665-256.319-122.334 256.319h-186.996l309.33-553.415 313.99 553.415zM509.087 247.10299999999995l308.748 553.415h168.938l-477.684-833.036-471.859 833.036h166.607l305.252-553.415z"  horiz-adv-x="1024" />

    
    <glyph glyph-name="lvyou1" unicode="&#59183;" d="M1124.992898 408.664434a40.959609 40.959609 0 0 1 5.119951 19.548904 42.821409 42.821409 0 0 1-79.591968 22.341605 286.717263 286.717263 0 0 1-101.002672 17.687104 383.530884 383.530884 0 0 1-227.6051-81.453768l17.221654-38.166909h12.567153a56.319462 56.319462 0 0 0 26.996106-6.981751 58.646713 58.646713 0 0 0 26.996105-34.443308l6.050852-19.083454 19.548904 5.119951a67.955715 67.955715 0 0 0 16.756204 0 54.457662 54.457662 0 0 0 26.996106-6.516301 59.112163 59.112163 0 0 0 26.996106-34.443308l6.050851-19.083454 19.548904 5.119951a53.526762 53.526762 0 0 0 13.032603 0 58.181263 58.181263 0 0 0 17.221654-2.7927l-142.893181-255.997557a873.649842 873.649842 0 0 1-163.372986 20.945255 855.962739 855.962739 0 0 1-112.638925-7.912652L462.191952 517.114308a70.282965 70.282965 0 0 0 36.305108-15.825304l16.756203-13.498053 13.963504 16.756204a100.537222 100.537222 0 0 0 63.766664 37.701458h12.567152a105.191723 105.191723 0 0 0 60.043064-18.618004l16.756203-11.636253 12.567153 15.359854a100.537222 100.537222 0 0 0 64.232114 37.701458h12.567153a108.915324 108.915324 0 0 0 70.282965-28.392456l33.046958 26.996106c-97.744522 168.027487-257.393907 279.270062-430.541345 279.270061a52.595862 52.595862 0 0 1 0 6.981752A53.526762 53.526762 0 0 1 390.512636 895.990691h-7.447202a53.526762 53.526762 0 0 1-46.54501-52.595862 46.54501 46.54501 0 0 1 0-7.447201 41.425059 41.425059 0 0 1 0-6.516302c-161.976636-43.75231-285.320913-186.180041-336.520424-367.705581l36.770558-20.014354a98.675422 98.675422 0 0 0 59.577613 32.581507h12.567153a105.191723 105.191723 0 0 0 59.577613-20.014354l17.687104-10.705353 12.567153 15.359854a100.537222 100.537222 0 0 0 64.232114 37.701458h12.567153A105.657173 105.657173 0 0 0 334.193174 477.085599l16.756203-11.636253 12.567153 15.359854A93.090021 93.090021 0 0 0 418.905092 514.321607l77.730167-528.751317a937.881957 937.881957 0 0 1-232.725051-73.075666 21.410705 21.410705 0 0 1-11.170802-24.203405 21.876155 21.876155 0 0 1 20.945254-16.290754h754.494616a21.410705 21.410705 0 0 1 20.945255 16.290754 21.410705 21.410705 0 0 1-11.170802 24.203405 902.042299 902.042299 0 0 1-178.26739 61.904864l134.04963 240.637703a51.664961 51.664961 0 0 0 4.654501-11.170802l5.119951-20.945255 20.945255 5.119951a70.282965 70.282965 0 0 0 17.221653 0 54.457662 54.457662 0 0 0 26.996106-6.516301 59.112163 59.112163 0 0 0 26.996106-34.443308l6.050852-19.083454 19.548904 4.654501a70.282965 70.282965 0 0 0 16.756204 0 55.854012 55.854012 0 0 0 26.996106-6.516302 60.973963 60.973963 0 0 0 28.857906-42.355959h42.821409a450.090249 450.090249 0 0 1 3.723601 56.319463 328.142322 328.142322 0 0 1-115.897075 262.513857z"  horiz-adv-x="1241" />

    
    <glyph glyph-name="tupian" unicode="&#59026;" d="M955.733333 759.466667H68.266667c-37.546667 0-68.266667-30.72-68.266667-68.266667v-614.4c0-37.546667 30.72-68.266667 68.266667-68.266667h887.466666c37.546667 0 68.266667 30.72 68.266667 68.266667V691.2c0 37.546667-30.72 68.266667-68.266667 68.266667z m-154.146133-171.485867a51.2 51.2 0 1 0 0-102.4 51.2 51.2 0 0 0 0 102.4z m48.520533-442.282667H174.1312c-32.392533 0-50.193067 37.6832-29.610667 62.702934l186.504534 226.781866a38.3488 38.3488 0 0 0 59.2384 0L556.373333 233.181867a38.3488 38.3488 0 0 1 59.2384 0l92.2624 112.1792a38.3488 38.3488 0 0 0 59.2384 0l112.64-136.977067c20.548267-25.002667 2.7648-62.685867-29.6448-62.685867z"  horiz-adv-x="1024" />

    
    <glyph glyph-name="qita" unicode="&#59178;" d="M128 810.666667a42.666667 42.666667 0 0 1-42.666667-42.666667v-213.333333a42.666667 42.666667 0 0 1 42.666667-42.666667h256V768a42.666667 42.666667 0 0 1-42.666667 42.666667H128z m0 85.333333h213.333333a128 128 0 0 0 128-128v-341.333333H128a128 128 0 0 0-128 128V768a128 128 0 0 0 128 128z m0-640a42.666667 42.666667 0 0 1-42.666667-42.666667v-213.333333a42.666667 42.666667 0 0 1 42.666667-42.666667h213.333333a42.666667 42.666667 0 0 1 42.666667 42.666667v256H128z m0 85.333333h341.333333v-341.333333a128 128 0 0 0-128-128H128a128 128 0 0 0-128 128v213.333333a128 128 0 0 0 128 128zM682.666667 810.666667a42.666667 42.666667 0 0 1-42.666667-42.666667v-256h256a42.666667 42.666667 0 0 1 42.666667 42.666667V768a42.666667 42.666667 0 0 1-42.666667 42.666667h-213.333333z m0 85.333333h213.333333a128 128 0 0 0 128-128v-213.333333a128 128 0 0 0-128-128h-341.333333V768a128 128 0 0 0 128 128z m-42.666667-640v-256a42.666667 42.666667 0 0 1 42.666667-42.666667h213.333333a42.666667 42.666667 0 0 1 42.666667 42.666667v213.333333a42.666667 42.666667 0 0 1-42.666667 42.666667h-256z m-85.333333 85.333333h341.333333a128 128 0 0 0 128-128v-213.333333a128 128 0 0 0-128-128h-213.333333a128 128 0 0 0-128 128v341.333333z"  horiz-adv-x="1024" />

    
    <glyph glyph-name="angular" unicode="&#58891;" d="M512 773.12L130.6624 637.1328l58.1632-504.2176L512-46.08l323.1744 178.9952 58.1632 504.2176zM512 773.12v-90.9312 0.4096V-46.08l323.1744 178.9952 58.1632 504.2176L512 773.12zM512 682.5984L273.6128 148.0704h88.8832l47.9232 119.6032h202.3424l47.9232-119.6032H749.568L512 682.5984z m69.632-341.1968h-139.264l69.632 167.5264 69.632-167.5264z"  horiz-adv-x="1024" />

    
    <glyph glyph-name="weixinxiaochengxu" unicode="&#59396;" d="M707.887407 793.6H320.094815c-119.845926 0-218.263704-98.038519-218.263704-218.263704v-387.792592c0-119.845926 98.038519-218.263704 218.263704-218.263704h387.792592c119.845926 0 218.263704 98.038519 218.263704 218.263704V575.336296c0 120.225185-98.038519 218.263704-218.263704 218.263704zM738.038519 351.952593c-16.118519-14.411852-40.011852-18.204444-59.354075-8.533334-14.411852 7.205926-25.41037 21.997037-17.825185 51.010371-2.654815 18.204444 86.281481 59.922963 81.161482 116.811851-0.379259 4.171852-1.327407 8.533333-3.034074 12.325926-23.324444 62.957037-124.017778 81.92-160.237037 10.61926-3.792593-7.774815-5.878519-16.118519-5.878519-25.031111l3.034074-274.773334c1.327407-40.011852-77.368889-169.908148-239.122963-117.191111-2.654815 0.948148-5.12 1.706667-7.774815 3.034074-19.911111 10.24-104.865185 58.595556-99.365926 162.702222 4.740741 52.148148 53.475556 116.432593 108.847408 139.377778 2.085926 0.948148 4.171852 1.706667 6.826667 2.085926 60.302222 14.411852 82.299259-46.26963 55.182222-73.386667v3.034075c-19.911111-9.860741-119.277037-57.837037-62.388148-142.411852 2.654815-4.171852 5.878519-7.774815 9.86074-10.998519 39.063704-32.237037 95.573333-18.204444 124.397037 11.946667 9.291852 9.860741 14.411852 22.376296 14.411852 35.65037 1.327407 60.302222-1.327407 248.414815-1.327407 276.859259 0 31.478519 93.866667 199.68 264.533333 104.106667 0 0.18963 180.906667-105.623704-11.946666-277.238518z"  horiz-adv-x="1024" />

    
    <glyph glyph-name="huabi-" unicode="&#58925;" d="M151.272727-9.309091L456.145455 81.454545c4.654545 2.327273 9.309091 4.654545 11.636363 6.981819l307.2 314.181818s2.327273 2.327273 2.327273 4.654545l109.381818 111.709091c11.636364 11.636364 18.618182 25.6 18.618182 41.890909s-6.981818 32.581818-18.618182 41.890909l-160.581818 160.581819c-23.272727 23.272727-62.836364 23.272727-83.781818 0l-114.036364-114.036364s-2.327273-2.327273-2.327273-4.654546L221.090909 335.127273c-2.327273-2.327273-4.654545-6.981818-6.981818-11.636364L118.690909 25.6c-2.327273-9.309091 0-20.945455 6.981818-27.927273 6.981818-9.309091 16.290909-11.636364 25.6-6.981818zM684.218182 723.781818c2.327273 2.327273 4.654545 2.327273 6.981818 0l160.581818-160.581818 2.327273-2.327273c0-2.327273 0-2.327273-2.327273-2.327272l-93.090909-95.418182-165.236364 167.563636 90.763637 93.090909z m-132.654546-134.981818l165.236364-167.563636-256-262.981819-18.618182 69.818182h-86.109091v88.436364l-60.509091 13.963636 256 258.327273zM258.327273 281.6l39.563636-9.309091v-72.145454c0-6.981818 2.327273-13.963636 6.981818-18.618182 4.654545-4.654545 11.636364-9.309091 18.618182-9.309091h69.818182l13.963636-46.545455L186.181818 58.181818l72.145455 223.418182z"  horiz-adv-x="1024" />

    
    <glyph glyph-name="Artbloger" unicode="&#58922;" d="M1024 16c0-79.53-64.472-144-144-144H144c-79.53 0-144 64.47-144 144V752C0 831.53 64.47 896 144 896h736c79.528 0 144-64.47 144-144v-736zM921.99 393.946c0-43.66-6.926-85.75-19.344-125.36-50.066-158.296-194.118-276.856-361.04-285.484-118.692-6.402-244.964 20.524-334.766 105.75-91.24 86.534-127.186 206.402-90.846 307.184 1.304 2.746 2.484 5.36 3.79 8.106 46.144 113.984 162.614 174.898 332.542 167.578 72.808-3.008 118.43-15.164 159.214-33.464 40.652-18.04 58.558-44.704 53.07-73.46-6.668-35.032-47.058-50.062-102.614-45.882l-15.95 1.046c-94.114 4.574-178.164-28.758-227.184-82.48-26.536-29.02-42.876-63.922-44.836-102.222-1.7-33.594 8.368-66.14 26.93-95.032 27.84-38.296 65.226-68.496 108.754-87.972 2.352-1.042 4.836-2.09 7.192-2.876a159.752 159.752 0 0 1 18.558-7.058c1.18-0.262 2.094-0.524 3.14-1.176 25.094-7.844 51.632-11.894 79.344-11.894 35.816 0 70.062 7.058 101.434 20.128 27.32 12.812 52.418 28.496 75.032 46.796 47.454 37.386 83.66 85.75 102.876 140.128 0.262-0.652 0.652-1.046 0.786-1.308-0.132 0.656-0.39 1.308-0.39 2.222 10.324 28.89 16.078 59.868 16.078 91.372 0 34.77-6.8 67.45-18.696 98.43-48.624 127.71-188.882 220.258-355.024 220.258-124.836 0-235.422-52.546-303.132-133.07C187.626 680.738 339.912 802.304 520.56 802.304c221.696 0 401.43-183.004 401.43-408.358zM632.322 330.418c39.61-47.714-8.886-158.43-55.554-198.43-47.054-40.39-116.988-34.246-156.464 13.464-39.476 47.972-33.594 118.82 13.46 159.21 47.058 40.134 159.082 73.466 198.558 25.756z"  horiz-adv-x="1024" />

    
    <glyph glyph-name="fenxiangfangshi" unicode="&#60257;" d="M800 192c-39.584 0-74.528-18.368-98.016-46.592l-273.472 154.72A191.04 191.04 0 0 1 448 384c0 28.928-6.592 56.256-18.048 80.864l204.64 131.84A127.04 127.04 0 0 1 704 576a128 128 0 1 1-128 128c0-21.504 5.792-41.44 15.168-59.232l-197.408-127.168A191.36 191.36 0 0 1 256 576a192 192 0 1 1 135.2-328.288l283.168-160.192A129.376 129.376 0 0 1 672 64a128 128 0 1 1 128 128zM704 768a64 64 0 1 0-0.032-128.032A64 64 0 0 0 704 768z m96-768a64 64 0 1 0 0.032 128.032A64 64 0 0 0 800 0z"  horiz-adv-x="1024" />

    
    <glyph glyph-name="jichuguanli" unicode="&#60259;" d="M941.44 30.528a447.808 447.808 0 0 1-397.44 320V544h128a32 32 0 0 1 32 32V704a32 32 0 0 1-32 32H352a32 32 0 0 1-32-32v-128a32 32 0 0 1 32-32h128v-193.472a447.84 447.84 0 0 1-397.504-320A64 64 0 1 1 160-32c0 16.48-6.4 31.36-16.64 42.688A384 384 0 0 0 480 286.496v-263.392c-19.04-11.072-32-31.488-32-55.136a64 64 0 0 1 128 0c0 23.616-12.96 44.032-32 55.136v263.392a383.936 383.936 0 0 0 336.608-275.872A63.36 63.36 0 0 1 864-32a64 64 0 0 1 128 0 64 64 0 0 1-50.56 62.528zM288 416h77.472a32 32 0 0 1 0 64H288a32 32 0 0 0-32 32V768a32 32 0 0 0 32 32h448a32 32 0 0 0 32-32v-256a32 32 0 0 0-32-32h-90.624a32 32 0 0 1 0-64H736a96 96 0 0 1 96 96V768a96 96 0 0 1-96 96H288a96 96 0 0 1-96-96v-256a96 96 0 0 1 96-96z"  horiz-adv-x="1024" />

    
    <glyph glyph-name="ceshishenqing" unicode="&#60258;" d="M607.232 0a32 32 0 1 0 0-64H192a96 96 0 0 0-96 96V736a96 96 0 0 0 96 96h544a96 96 0 0 0 96-96 32 32 0 0 0-64 0 32 32 0 0 1-32 32H192a32 32 0 0 1-32-32v-704a32 32 0 0 1 32-32h415.232zM832 310.24v-146.656c0-42.656-64-42.656-64 0v146.656c0 42.688 64 42.688 64 0zM288 576a32 32 0 1 0 0 64h224a32 32 0 0 0 0-64H288zM288 416a32 32 0 0 0 0 64h128a32 32 0 0 0 0-64H288zM639.424-30.592a32 32 0 1 0-64 0L576 96a96 96 0 0 0 96 96l127.744-1.152a32 32 0 1 0 0-64L672 128a32 32 0 0 1-32-32l-0.576-126.592zM637.92-51.648a32 32 0 1 0-44.32 46.208l180.384 172.992a32 32 0 1 0 44.288-46.176l-180.352-173.024zM880.896 561.472a31.424 31.424 0 0 1 3.328 44.416l-0.416 0.512a32 32 0 0 1-44.896 3.36L408.32 243.712l-15.2-51.84 58.336 4.544 429.44 365.056z m51.616 86.4a95.36 95.36 0 0 0-9.408-134.496l-438.08-372.448a32 32 0 0 0-18.24-7.52l-114.944-8.896a32 32 0 0 0-33.184 40.928l30.944 105.472a32 32 0 0 0 9.984 15.36L797.408 658.496a96 96 0 0 0 134.688-10.112l0.416-0.512z"  horiz-adv-x="1024" />

    
    <glyph glyph-name="jinggao" unicode="&#60261;" d="M512 864C246.912 864 32 649.088 32 384c0-265.088 214.912-480 480-480 265.088 0 480 214.912 480 480 0 265.088-214.912 480-480 480z m0-896C282.24-32 96 154.24 96 384S282.24 800 512 800s416-186.24 416-416-186.24-416-416-416zM512 512a32 32 0 0 1-32-32v-352a32 32 0 0 1 64 0V480a32 32 0 0 1-32 32zM512 624m-48 0a48 48 0 1 1 96 0 48 48 0 1 1-96 0Z"  horiz-adv-x="1024" />

    
    <glyph glyph-name="shiyongwendang" unicode="&#60262;" d="M288 576h448a32 32 0 0 1 0 64H288a32 32 0 0 1 0-64zM288 352h448a32 32 0 0 1 0 64H288a32 32 0 0 1 0-64zM544 192H288a32 32 0 0 1 0-64h256a32 32 0 0 1 0 64zM896 763.072C896 818.72 851.552 864 796.928 864H227.04C172.448 864 128 818.72 128 763.072v-758.144C128-50.72 172.448-96 227.04-96h435.008c1.568 0 2.912 0.672 4.416 0.896 8.96-1.6 18.464 0.256 25.984 6.528l192 160a31.424 31.424 0 0 1 10.816 27.2c0.16 1.184 0.736 2.208 0.736 3.424V763.072zM192 4.928V763.072C192 783.424 207.712 800 227.04 800h569.888C816.288 800 832 783.424 832 763.072V160h-96a96 96 0 0 1-96-96v-96H227.04C207.712-32 192-15.424 192 4.928zM814.016 96L704 4.32V64a32 32 0 0 0 32 32h78.016z"  horiz-adv-x="1024" />

    
    <glyph glyph-name="shebeikaifa" unicode="&#60263;" d="M777.376 137.376a31.968 31.968 0 0 1 45.248 0l160 160a31.968 31.968 0 0 1 0 45.248l-160 160a31.968 31.968 0 1 1-45.248-45.248L914.752 320l-137.376-137.376a31.968 31.968 0 0 1 0-45.248zM624.96 519.744l-96-384a32 32 0 1 1 62.112-15.52l96 384a32 32 0 1 1-62.112 15.52zM438.624 502.624a31.968 31.968 0 0 1-45.248 0l-160-160a31.968 31.968 0 0 1 0-45.248l160-160a31.968 31.968 0 1 1 45.248 45.248L301.248 320l137.376 137.376a31.968 31.968 0 0 1 0 45.248zM896 800H128a96 96 0 0 1-96-96v-640a96 96 0 0 1 96-96h768a96 96 0 0 1 96 96v51.552a32 32 0 0 1-64 0V64a32 32 0 0 0-32-32H128a32 32 0 0 0-32 32V592h832v-64a32 32 0 0 1 64 0V704a96 96 0 0 1-96 96z m32-144H96V704a32 32 0 0 0 32 32h768a32 32 0 0 0 32-32v-48z"  horiz-adv-x="1024" />

    
    <glyph glyph-name="tijianxingbiefenxi" unicode="&#58949;" d="M786.368 426.416V755.44l161.424-161.376c4.24-4.288 9.856-6.416 15.456-6.416a21.904 21.904 0 0 1 15.456 37.344L764.512 839.136 550.416 624.992a21.792 21.792 0 0 1 0-30.912 21.84 21.84 0 0 1 30.896 0h0.016l161.36 161.376v-329.024c-131.952-11.168-235.968-122-235.968-256.768 0-142.176 115.648-257.84 257.824-257.84 142.16 0 257.872 115.664 257.824 257.84 0 134.768-104.016 245.584-236 256.752z m-21.856-470.88c-118.048 0-214.096 96.048-214.096 214.096 0 118.064 96.048 214.16 214.096 214.16 118.08 0 214.144-96.096 214.144-214.16 0-118.032-96.064-214.096-214.144-214.096z m-296.8 222.112H281.328v137.84c131.984 11.152 236.016 121.936 236.016 256.736 0 142.176-115.68 257.856-257.872 257.856C117.296 830.08 1.616 714.4 1.616 572.224c0-134.816 104.016-245.584 235.984-256.736v-137.84H51.248a21.824 21.824 0 1 1 0-43.696h186.368v-200.24a21.856 21.856 0 1 1 43.728-1.2v201.44h186.368c12.08 0 21.872 9.76 21.888 21.84a21.904 21.904 0 0 1-21.888 21.856zM45.36 572.224c0 118.048 96.016 214.128 214.112 214.128 118.048 0 214.144-96.08 214.144-214.128 0-118.08-96.096-214.096-214.144-214.096-118.08 0-214.112 96.016-214.112 214.096z"  horiz-adv-x="1024" />

    
    <glyph glyph-name="MongoDB" unicode="&#58987;" d="M244.1728 895.4624c-5.0176-339.584 3.5328-817.8944-51.7888-875.776-30.208 12.5952-176.7168 93.7472-176.7168 359.9104 0 294.2976 208.384 395.1104 228.5056 515.84z m7.2704-65.5104c25.7024-68.0448 194.3552-239.0784 194.3552-450.3552 0-211.3024-93.0816-309.4016-173.568-367.2576v-98.7136c0-17.6128-14.1312-26.4192-22.9376-26.4192s-24.832 8.192-24.832 22.016v96.8448c72.9088 32.6912 30.7712 611.328 26.9824 823.8848z m348.7744-409.6768c14.2848 14.336 22.6816 22.6048 25.2672 24.7552 6.4 5.4528 13.312 9.6768 20.736 12.6976 7.424 3.0208 14.7968 4.5056 22.0672 4.5056 12.2624 0 22.8352-3.584 31.6672-10.752 8.8576-7.168 14.7712-17.5872 17.7664-31.2064 14.6944 17.2288 27.1104 28.5184 37.248 33.8944 10.112 5.376 20.5312 8.064 31.232 8.064 10.4192 0 19.6608-2.688 27.7248-8.064 8.064-5.376 14.4384-14.1568 19.1488-26.368 3.1488-8.32 4.7104-21.376 4.7104-39.168v-84.7872c0-12.3392 0.9216-20.7872 2.7904-25.3696a18.176 18.176 0 0 1 7.936-8.0896c3.84-2.2272 10.112-3.328 18.816-3.328v-7.7568H770.56v7.7568h4.096c8.4224 0 14.976 1.6384 19.6864 4.9408 3.2768 2.304 5.632 5.9648 7.0656 11.008 0.5632 2.4064 0.8448 9.3696 0.8448 20.8384v84.8128c0 16.0512-1.92 27.392-5.76 33.9968-5.5808 9.1648-14.4896 13.7728-26.752 13.7728-7.5776 0-15.1808-1.92-22.784-5.7088-7.68-3.8144-16.896-10.88-27.7248-21.1968l-0.4352-2.3808 0.4352-9.2416v-94.0544c0-13.4656 0.7424-21.8624 2.2272-25.1648 1.5104-3.328 4.3264-6.0672 8.448-8.2944 4.1472-2.2272 11.2128-3.328 21.1968-3.328v-7.7568h-99.072v7.7568c10.8288 0 18.2784 1.28 22.3488 3.8656a20.1216 20.1216 0 0 1 8.448 11.6224c0.7168 2.432 1.0752 9.5488 1.0752 21.2992v84.8128c0 16.0512-2.3552 27.5968-7.0656 34.6368a30.1056 30.1056 0 0 1-26.3168 13.7728c-7.7056 0-15.36-2.0736-22.912-6.2464-11.8272-6.3232-20.9664-13.4144-27.392-21.2992v-105.6768c0-12.9024 0.896-21.2992 2.688-25.1648a18.432 18.432 0 0 1 7.936-8.704c3.4816-1.9456 10.5728-2.9184 21.248-2.9184v-7.7568h-96.9216v7.7568c8.96 0 15.2576 0.9728 18.816 2.8928a18.5344 18.5344 0 0 1 8.1408 9.2672c1.8432 4.224 2.7904 12.4416 2.7904 24.6272v75.3408c0 21.6576-0.64 35.6352-1.92 41.9584-1.024 4.736-2.56 7.9872-4.7104 9.7792a13.2608 13.2608 0 0 1-8.7808 2.688 40.96 40.96 0 0 1-14.336-3.2256l-3.2256 7.7568 59.0848 24.0896h9.216v-41.9584z m378.624 41.984c29.6704 0 53.504-11.3408 71.4752-34.0224 15.2576-19.3536 22.8864-41.6 22.8864-66.7136 0-17.6384-4.1984-35.5072-12.6208-53.5808-8.4224-18.0736-20.0192-31.6928-34.7904-40.8832a91.5712 91.5712 0 0 0-49.3056-13.7728c-29.5424 0-53.0176 11.8272-70.4256 35.5072a110.3616 110.3616 0 0 0-22.0416 67.1488c0 18.0736 4.4544 36.0448 13.3632 53.9136 8.9344 17.8432 20.6592 31.0528 35.2256 39.5776 14.5408 8.5504 29.952 12.8 46.208 12.8z m-6.656-14.0032c-7.552 0-15.1552-2.2528-22.784-6.784-7.6288-4.5056-13.824-12.4416-18.5088-23.7824-4.7104-11.3152-7.0656-25.8816-7.0656-43.6736 0-28.6976 5.6576-53.4528 17.024-74.24 11.3408-20.8128 26.2656-31.232 44.8256-31.232 13.824 0 25.2416 5.76 34.2528 17.2288 8.96 11.4944 13.4656 31.232 13.4656 59.1872 0 34.9952-7.4752 62.5408-22.4512 82.6368-10.1376 13.7728-23.04 20.6592-38.7584 20.6592z m187.0592-27.7504c22.9632 27.8272 44.8768 41.728 65.7152 41.728 10.7008 0 19.8912-2.688 27.5968-8.064 7.7056-5.376 13.824-14.2336 18.432-26.5728 3.1232-8.6016 4.6848-21.8112 4.6848-39.6032v-84.1472c0-12.4672 1.024-20.9408 2.9952-25.3952 1.5616-3.584 4.096-6.4 7.6032-8.3712 3.4816-2.0224 9.9584-3.0208 19.3792-3.0208v-7.7568h-96.9728v7.7568h4.096c9.1136 0 15.488 1.408 19.1488 4.1984a22.016 22.016 0 0 1 7.5776 12.3648c0.5632 2.1504 0.8704 8.9088 0.8704 20.224v80.7168c0 17.92-2.304 30.9504-6.9632 39.04-4.6336 8.1152-12.4416 12.16-23.424 12.16-16.9984 0-33.8944-9.3184-50.7392-27.9552v-103.936c0-13.3632 0.768-21.6064 2.3552-24.7552a19.8144 19.8144 0 0 1 8.2432-9.1648c3.5072-1.92 10.5984-2.8928 21.2992-2.8928v-7.7568h-96.9472v7.7568h4.2752c9.984 0 16.7168 2.56 20.224 7.6288 3.4816 5.12 5.248 14.8224 5.248 29.184v73.1648c0 23.6544-0.5376 38.0928-1.6128 43.264-1.0752 5.12-2.7136 8.6528-4.9152 10.5216a13.3376 13.3376 0 0 1-8.8832 2.816 40.96 40.96 0 0 1-14.336-3.2512l-3.2256 7.7568 59.0848 24.0896h9.216v-41.728z m214.4512-89.3184a64.8704 64.8704 0 0 0-27.5968 24.6272 65.92 65.92 0 0 0-9.6512 34.9952c0 19.5072 7.3216 36.2752 21.9392 50.3552 14.6432 14.0544 33.3568 21.0688 56.192 21.0688 18.688 0 34.8928-4.5824 48.5888-13.7728h41.5232c6.144 0 9.6768-0.1792 10.7008-0.512a3.6608 3.6608 0 0 0 2.1248-1.8432c0.8704-1.28 1.28-3.584 1.28-6.912 0-3.712-0.3584-6.2976-1.0752-7.7312a4.352 4.352 0 0 0-2.2272-1.7152c-1.0752-0.4352-4.6848-0.64-10.8032-0.64h-25.472c7.9872-10.3424 11.9808-23.552 11.9808-39.6032 0-18.3552-6.9888-34.048-20.992-47.104-13.9776-13.056-32.7424-19.6096-56.2688-19.6096-9.728 0-19.6352 1.4336-29.7472 4.3008-6.2976-5.4528-10.5216-10.2144-12.7488-14.3104-2.2016-4.096-3.328-7.552-3.328-10.4192 0-2.4576 1.2032-4.8128 3.5584-7.1168 2.3552-2.304 6.9376-3.9424 13.7984-4.9408 3.9936-0.5888 13.9776-1.0752 29.952-1.5104 29.3888-0.7168 48.4352-1.7152 57.1648-3.0208 13.2608-1.8688 23.8592-6.8096 31.7696-14.848 7.936-8.0128 11.8784-17.92 11.8784-29.696 0-16.2048-7.552-31.4112-22.6816-45.6192-22.272-20.9408-51.3024-31.4112-87.1168-31.4112-27.5456 0-50.7904 6.2464-69.76 18.7136-10.7008 7.168-16.0512 14.6432-16.0512 22.3744 0 3.456 0.768 6.912 2.3552 10.3424 2.4064 5.2992 7.424 12.6976 14.976 22.1696 0.9984 1.28 8.2688 9.0368 21.8368 23.2448-7.424 4.4288-12.672 8.4224-15.744 11.9296a17.664 17.664 0 0 0-4.608 11.9552c0 5.0176 2.048 10.9056 6.1184 17.6384 4.0704 6.7328 13.44 16.2816 28.16 28.6208z m-2.1504-71.8848c-6.7072-7.296-11.776-14.1312-15.1808-20.4288-3.4304-6.3232-5.12-12.1344-5.12-17.4336 0-6.912 4.096-12.928 12.3904-18.0736 14.2592-8.9088 34.8928-13.3632 61.8496-13.3632 25.6768 0 44.6208 4.5824 56.832 13.6704 12.1856 9.1136 18.304 18.8416 18.304 29.184 0 7.424-3.6352 12.7488-10.9312 15.8976-7.424 3.1744-22.1184 5.0432-44.0832 5.632-32.1024 0.8448-56.7808 2.4832-74.0608 4.9152z m39.3984 192.6144c-10.5728 0-19.4048-4.224-26.5472-12.6976-7.1424-8.448-10.7008-21.4528-10.7008-38.9632 0-22.656 4.864-40.2432 14.5664-52.736 7.424-9.4464 16.8192-14.1824 28.2368-14.1824 10.8544 0 19.7632 4.096 26.752 12.288 6.9888 8.1664 10.496 20.992 10.496 38.5024 0 22.8096-4.9152 40.6784-14.7712 53.5808-7.2704 9.472-16.64 14.208-28.032 14.208z m225.3568 10.3168c29.696 0 53.504-11.3152 71.4752-33.9968 15.2832-19.3536 22.912-41.6 22.912-66.7136 0-17.6384-4.224-35.5072-12.6208-53.5808-8.448-18.0736-20.0192-31.6928-34.7904-40.8832a91.5712 91.5712 0 0 0-49.3312-13.7728c-29.5424 0-52.992 11.8272-70.4 35.5072a110.3616 110.3616 0 0 0-22.0672 67.1488c0 18.0736 4.48 36.0448 13.3888 53.9136 8.9088 17.8432 20.6592 31.0528 35.2 39.5776 14.5664 8.5504 29.952 12.8 46.2336 12.8z m-6.656-13.9776c-7.552 0-15.1296-2.2528-22.784-6.784-7.6288-4.5056-13.7984-12.4416-18.5088-23.7824-4.7104-11.3152-7.04-25.8816-7.04-43.6736 0-28.6976 5.6576-53.4528 16.9984-74.24 11.3408-20.8128 26.2912-31.232 44.8512-31.232 13.824 0 25.2416 5.76 34.2272 17.2288 8.9856 11.4944 13.4912 31.232 13.4912 59.1872 0 34.9952-7.5008 62.5408-22.4768 82.6368-10.1376 13.7728-23.04 20.6592-38.7328 20.6592z m122.0096-188.928v7.936h9.6256c8.448 0 14.8736 1.3312 19.3792 3.9936a24.32 24.32 0 0 1 9.9584 10.8544c1.28 3.0208 1.92 12.0576 1.92 27.136v191.9488c0 14.9248-0.768 24.2432-2.3552 27.9808-1.5616 3.712-4.736 6.9888-9.5232 9.7792-4.7872 2.816-11.2384 4.1984-19.3536 4.1984h-9.6512v7.9616H1881.6c34.6624 0 62.5664-4.736 83.6864-14.208 25.8304-11.6224 45.4144-29.184 58.752-52.736 13.312-23.5008 19.9936-50.1248 19.9936-79.8208a158.464 158.464 0 0 0-9.8304-56.704c-6.5792-17.28-15.0528-31.5648-25.472-42.8288-10.4192-11.264-22.4256-20.3008-36.0704-27.1104-13.6192-6.8096-30.2848-12.0832-49.9712-15.8208-8.704-1.7152-22.4-2.56-41.088-2.56h-129.92z m110.6432 275.2v-227.6608c0-12.032 0.5888-19.456 1.7152-22.1696 1.152-2.7136 3.072-4.7872 5.7856-6.2208 3.84-2.176 9.4208-3.2512 16.6912-3.2512 23.808 0 42.0096 8.192 54.5792 24.5504 17.1264 22.0928 25.6768 56.3712 25.6768 102.8608 0 37.4528-5.8368 67.3536-17.536 89.728-9.2928 17.5104-21.1968 29.44-35.7376 35.7376-10.2912 4.4288-27.3408 6.5792-51.1744 6.4512z m395.0848-120.4992c27.5456-6.4512 46.8736-14.2592 58.0096-23.4496 15.9744-13.056 23.9616-29.9776 23.9616-50.7904 0-21.9392-8.7552-40.0896-26.3168-54.4256-21.5552-17.3824-52.864-26.0608-93.952-26.0608h-147.456v7.9616c13.4144 0 22.5024 1.28 27.2896 3.7632a21.9136 21.9136 0 0 1 10.0608 9.8048c1.92 4.0192 2.8928 13.9264 2.8928 29.696v189.3888c0 15.7696-0.9728 25.7024-2.8928 29.7984a21.1968 21.1968 0 0 1-10.1632 9.7792c-4.864 2.4576-13.9264 3.6608-27.1872 3.6608v7.9616h139.1104c33.2288 0 56.7808-2.9696 70.6304-8.9344 13.824-5.9392 24.7552-14.848 32.7424-26.6752 7.9872-11.8272 11.9808-24.4224 11.9808-37.76 0-14.08-5.0688-26.5728-15.2064-37.5552-10.112-10.9824-27.9552-19.712-53.504-26.1632z m-77.9008 5.8112c20.2752 0 35.2256 2.304 44.8512 6.912 9.6256 4.5824 16.9984 11.008 22.144 19.3536 5.12 8.32 7.7056 18.944 7.7056 31.8464 0 12.928-2.5344 23.5008-7.6032 31.744a48.384 48.384 0 0 1-21.7088 18.8416c-9.4208 4.3008-24.5504 6.3744-45.3888 6.2208V419.84z m0-16.768v-93.6192l-0.2048-10.752c0-7.7568 1.9712-13.5936 5.888-17.536 3.9168-3.9424 9.728-5.9392 17.4336-5.9392 11.4176 0 21.9392 2.56 31.5648 7.6544 9.6512 5.0944 17.024 12.4672 22.1696 22.1696 5.12 9.6768 7.68 20.48 7.68 32.384 0 13.6192-3.1232 25.856-9.3952 36.6848a50.8416 50.8416 0 0 1-25.9072 22.7072c-10.9824 4.3008-27.392 6.4-49.2288 6.2464z"  horiz-adv-x="2355" />

    
    <glyph glyph-name="huanfu" unicode="&#59207;" d="M865.537 649.816c31.094-17.927 56.847-61.239 56.801-96.336v-338.219c0-35.082-24.97-78.394-56.049-96.32L568.61-50.556c-31.047-17.927-81.817-17.927-112.865 0L158.05 118.94C126.986 136.837 102 180.18 102 215.261V553.495c0 35.098 24.986 78.394 56.049 96.321L455.007 818.555c31.048 17.927 81.833 17.927 112.866 0l297.664-168.739zM620.34 596.955c-12.895 7.528-29.481 3.361-37.103-9.375l-17.7-30.187H460.354l-17.672 30.187c-7.622 12.689-24.256 16.903-37.104 9.375l-124.781-73.057c-12.848-7.528-17.114-23.957-9.492-36.694l40.651-67.753c7.622-12.737 24.257-16.903 37.104-9.375l23.644 8.732v-194.38c0-26.467 12.74-47.962 39.586-47.962h201.242c26.797 0 39.654 21.448 39.654 47.962v194.38l23.576-8.732c12.895-7.528 29.482-3.362 37.104 9.375l40.65 67.753c7.719 12.737 3.452 29.166-9.395 36.694L620.34 596.955z"  horiz-adv-x="1024" />

    
    <glyph glyph-name="guanbi" unicode="&#60266;" d="M548.992 392.256L885.44 728.672a31.968 31.968 0 1 1-45.248 45.248L503.744 437.504 167.328 773.92a31.968 31.968 0 1 1-45.248-45.248l336.416-336.416L122.08 55.84a31.968 31.968 0 1 1 45.248-45.248l336.416 336.416L840.16 10.56a31.968 31.968 0 1 1 45.248 45.248L548.992 392.256z"  horiz-adv-x="1024" />

    
    <glyph glyph-name="xiajiantou" unicode="&#60269;" d="M573.056 144l308.8 404.608A76.8 76.8 0 0 1 820.736 672H203.232a76.8 76.8 0 0 1-61.056-123.392l308.8-404.608a76.8 76.8 0 0 1 122.08 0z"  horiz-adv-x="1024" />

    
    <glyph glyph-name="shangjiantou" unicode="&#60270;" d="M573.056 624l308.8-404.608A76.8 76.8 0 0 0 820.736 96H203.232a76.8 76.8 0 0 0-61.056 123.392L450.976 624a76.8 76.8 0 0 0 122.08 0z"  horiz-adv-x="1024" />

    
    <glyph glyph-name="zhengque" unicode="&#58903;" d="M512.449424 383.350829m-511.350819 0a511.350819 511.350819 0 1 1 1022.701639 0 511.350819 511.350819 0 1 1-1022.701639 0ZM423.961763 166.82571700000005l-8.189603 8.788842c-11.185799 12.084658-10.486687 31.160441 1.597971 42.34624l339.069538 314.001362c12.084658 11.185799 31.160441 10.486687 42.34624-1.597971l8.189602-8.788843c11.185799-12.084658 10.486687-31.160441-1.597971-42.346239L466.308003 165.22774500000003c-12.084658-11.185799-31.060567-10.486687-42.34624 1.597972zM465.509017 179.40974100000005l-9.388081-7.490491c-12.883644-10.28694-31.859553-8.189603-42.146494 4.694041L258.671606 371.166298c-10.28694 12.883644-8.189603 31.859553 4.694041 42.146493l9.388081 7.490491c12.883644 10.28694 31.859553 8.189603 42.146493-4.694041l155.302837-194.553007c10.28694-12.883644 8.189603-31.859553-4.694041-42.146493z"  horiz-adv-x="1025" />

    
    <glyph glyph-name="icon_loading" unicode="&#60288;" d="M480 800a32 32 0 0 0 64 0v-192a32 32 0 0 0-64 0V800z m250.624-60.64a32 32 0 1 0 51.776-37.632l-112.832-155.328a32 32 0 0 0-51.808 37.632l112.864 155.328z m167.136-196.384a32 32 0 1 0 19.776-60.864l-182.624-59.328a32 32 0 0 0-19.776 60.864l182.624 59.328z m19.776-257.088a32 32 0 1 0-19.776-60.864l-182.624 59.328a32 32 0 0 0 19.776 60.864l182.624-59.328zM782.4 66.24a32 32 0 0 0-51.776-37.632l-112.864 155.328a32 32 0 1 0 51.808 37.632l112.832-155.328zM544-32a32 32 0 0 0-64 0v192a32 32 0 0 0 64 0v-192z m-250.624 60.64a32 32 0 0 0-51.776 37.632l112.832 155.328a32 32 0 0 0 51.808-37.632l-112.864-155.328z m-167.136 196.384a32 32 0 1 0-19.776 60.864l182.624 59.328a32 32 0 0 0 19.776-60.864l-182.624-59.328z m-19.776 257.088a32 32 0 0 0 19.776 60.864l182.624-59.328a32 32 0 1 0-19.776-60.864l-182.624 59.328zM241.6 701.76a32 32 0 1 0 51.776 37.632l112.864-155.328a32 32 0 1 0-51.808-37.632L241.6 701.76z"  horiz-adv-x="1024" />

    
    <glyph glyph-name="icon_fabu" unicode="&#60296;" d="M166.464 447.296l212.64-128.736a32 32 0 1 0-33.152-54.72l-266.528 161.312a32 32 0 0 0 4.256 56.928l832 347.456a32 32 0 0 0 43.744-35.52l-145.76-768a32 32 0 0 0-48.576-21.056l-270.208 171.328a32 32 0 0 0 34.24 54.08l230.464-146.112L885.44 747.52 166.464 447.296zM416 263.904V0a32 32 0 0 0-64 0v278.624a32 32 0 0 0 11.2 24.32L752.192 636a32 32 0 0 0 41.6-48.64L416 263.936z"  horiz-adv-x="1024" />

    
    <glyph glyph-name="icon_tianjia" unicode="&#60297;" d="M512-96C246.912-96 32 118.912 32 384 32 649.088 246.912 864 512 864c265.088 0 480-214.912 480-480 0-265.088-214.912-480-480-480z m0 64c229.76 0 416 186.24 416 416S741.76 800 512 800 96 613.76 96 384s186.24-416 416-416zM256 352a32 32 0 0 0 0 64h512a32 32 0 0 0 0-64H256zM480 640a32 32 0 0 0 64 0v-512a32 32 0 0 0-64 0V640z"  horiz-adv-x="1024" />

    
    <glyph glyph-name="icon_yulan" unicode="&#60298;" d="M512 160a224 224 0 1 0 0 448 224 224 0 0 0 0-448z m0 64a160 160 0 1 1 0 320 160 160 0 0 1 0-320zM512 32C323.232 32 154.144 144.736 5.44 366.144a32 32 0 0 0 0 35.712C154.144 623.296 323.2 736 512 736c188.768 0 357.856-112.736 506.56-334.144a32 32 0 0 0 0-35.712C869.856 144.704 700.8 32 512 32z m0 64c159.84 0 306.72 94.784 441.248 288C818.72 577.216 671.84 672 512 672c-159.84 0-306.72-94.784-441.248-288 134.528-193.216 281.408-288 441.248-288z"  horiz-adv-x="1024" />

    
    <glyph glyph-name="icon_zhanghao" unicode="&#60299;" d="M620.256 89.824a32 32 0 0 0-28.256 31.776v80.736a32 32 0 0 0 13.216 25.92c52.864 38.272 99.168 99.68 124.736 169.152a32 32 0 0 0 19.584 19.2c9.76 3.36 21.536 24.224 32.416 70.72 5.92 25.152-1.024 40.96-16.576 50.4a32 32 0 0 0-15.264 24.48C736.448 714.688 650.144 800 514.24 800c-138.24 0-227.936-88.064-240.672-242.432a32 32 0 0 0-15.04-24.544c-16.416-10.24-22.272-23.36-16.224-44.032 11.392-38.88 23.84-60.352 36.8-68.48a32 32 0 0 0 13.12-16.384c25.088-70.496 72.224-133.536 126.72-173.504a32 32 0 0 0 13.056-25.792V121.6a32 32 0 0 0-28.256-31.776c-125.12-14.72-212.608-54.4-225.952-88.672 2.304-1.056 5.12-2.176 8.384-3.296 17.184-6.016 43.52-11.52 77.12-16.096 65.504-8.896 155.168-13.76 248.704-13.76s183.2 4.864 248.704 13.76c33.6 4.576 59.936 10.08 77.12 16.096 3.296 1.12 6.08 2.24 8.384 3.296-13.344 34.272-100.832 73.92-225.92 88.64z m35.744 59.776c151.36-22.656 256-79.168 256-157.376C912-74.784 755.84-96 512-96s-400 21.216-400 88.224c0 78.208 104.64 134.72 256 157.376V189.12c-56.64 45.536-104.576 110.944-132.576 184.128-23.936 19.392-40.928 51.296-54.528 97.792-12.8 43.648 0.064 81.344 30.336 106.592C231.456 755.52 346.336 864 514.24 864c165.6 0 276.992-105.728 298.08-281.44 29.44-24.864 42.72-63.904 31.968-109.856-13.312-56.768-30.848-92.512-58.976-109.632-28.448-70.624-74.976-133.184-129.312-176.576v-36.896z"  horiz-adv-x="1024" />

    
    <glyph glyph-name="icon_shezhi" unicode="&#60301;" d="M482.88 784l-17.28-90.688-20.64-4.512a309.696 309.696 0 0 1-99.776-41.088l-18.688-11.84-73.28 55.04-44.64-44.64 51.904-76.416-11.392-17.76a310.016 310.016 0 0 1-41.568-99.584l-4.8-21.6-90.72-12.896v-63.104l90.688-17.312 4.512-20.64a309.984 309.984 0 0 1 41.088-99.776l11.84-18.688-55.04-73.28 44.64-44.64 76.416 51.904 17.76-11.392a310.016 310.016 0 0 1 99.584-41.568l21.6-4.8 12.896-90.72h63.104l17.312 90.688 20.64 4.512a309.984 309.984 0 0 1 99.776 41.088l18.688 11.84 73.28-55.04 44.64 44.64-51.904 76.416 11.392 17.76a310.016 310.016 0 0 1 41.568 99.584l4.8 21.6 90.72 12.896V413.12l-90.688 17.312-4.512 20.64a309.984 309.984 0 0 1-41.088 99.776l-11.84 18.688 55.04 73.28-44.64 44.64-76.416-51.904-17.76 11.392a310.144 310.144 0 0 1-99.584 41.568l-21.6 4.8-12.896 90.72H482.88zM410.56 746.144l19.424 101.856h171.584l14.624-102.624c28-8.064 54.848-19.328 80.128-33.568l85.792 58.304 121.344-121.344-62.272-82.88c14.08-25.408 25.152-52.352 32.96-80.416l101.888-19.424v-171.584l-102.624-14.624a373.92 373.92 0 0 0-33.568-80.128l58.304-85.792-121.344-121.344-82.88 62.272c-25.408-14.08-52.352-25.152-80.416-32.96l-19.424-101.888h-171.584l-14.624 102.624a373.92 373.92 0 0 0-80.128 33.568L241.92-2.112l-121.344 121.344 62.272 82.88a373.824 373.824 0 0 0-32.96 80.416L48 301.952v171.584l102.624 14.624c8.064 27.968 19.328 54.848 33.568 80.128L125.888 654.08l121.344 121.344 82.88-62.272a373.856 373.856 0 0 0 80.416 32.96zM512 192a192 192 0 1 0 0 384 192 192 0 0 0 0-384z m0 64a128 128 0 1 1 0 256 128 128 0 0 1 0-256z"  horiz-adv-x="1024" />

    
    <glyph glyph-name="xingzhuang-xingxing" unicode="&#60314;" d="M254.88-48a32 32 0 0 0-31.52 37.344l46.304 272.992-196.128 193.28a32 32 0 0 0 17.792 54.432l270.752 39.776 121.152 248.16c10.72 22.016 46.816 22.016 57.504 0l121.152-248.16 270.752-39.776a32 32 0 0 0 17.824-54.432l-196.128-193.28 45.248-266.816a32 32 0 0 0-29.888-43.52h-0.64c-5.152 0-10.304 1.248-15.04 3.744L512 84.416l-242.08-128.672a32.224 32.224 0 0 0-15.04-3.744zM164.224 456.096l162.24-159.904c7.424-7.328 10.816-17.856 9.088-28.128l-38.208-225.312 199.648 106.112a31.968 31.968 0 0 0 30.016 0l199.648-106.112-38.208 225.312a32 32 0 0 0 9.088 28.128l162.208 159.904-223.84 32.896a32 32 0 0 0-24.096 17.632L512 711.04l-99.808-204.416a31.968 31.968 0 0 0-24.096-17.632l-223.872-32.896z"  horiz-adv-x="1024" />

    
    <glyph glyph-name="dakai" unicode="&#60383;" d="M275.84 736H124.192l1.824-580.096a32 32 0 0 0-64 0L60.16 736a64 64 0 0 0 64 64h177.92l97.28-96h498.272a32 32 0 1 0 0-64H373.152l-97.28 96zM127.52 160.384a32 32 0 0 0-63.04 10.944l54.624 314.144C127.904 536.064 174.784 576 225.76 576h668.864c55.36 0 93.92-46.72 84.384-101.472l-72.32-416C897.824 7.936 850.976-32 800-32H160a32 32 0 0 0 0 64h640c19.712 0 40.096 17.376 43.616 37.472l72.32 416c2.784 15.904-5.984 26.528-21.312 26.528H225.76c-19.68 0-40.096-17.376-43.584-37.472l-54.656-314.144z"  horiz-adv-x="1024" />

    
    <glyph glyph-name="kongxinduigou" unicode="&#60389;" d="M512-96C246.912-96 32 118.912 32 384 32 649.088 246.912 864 512 864c265.088 0 480-214.912 480-480 0-265.088-214.912-480-480-480z m0 64c229.76 0 416 186.24 416 416S741.76 800 512 800 96 613.76 96 384s186.24-416 416-416zM741.216 552a32 32 0 0 0 46.816-43.616l-315.296-338.208a32 32 0 0 0-43.968-2.688l-193.344 162.368a32 32 0 1 0 41.152 48.992l170.08-142.816 294.56 316z"  horiz-adv-x="1024" />

    
    <glyph glyph-name="Group-" unicode="&#59019;" d="M727.68 497.28L456 224a32 32 0 0 0-22.4-9.28 32 32 0 0 0-22.72 9.28L275.2 361.28a32 32 0 0 0 0 45.44 32 32 0 0 0 45.12 0l113.28-113.28 248.64 248.96a32 32 0 0 0 45.44 0 32 32 0 0 0 0-45.12M512 832a448 448 0 1 1 448-448A448 448 0 0 1 512 832"  horiz-adv-x="1024" />

    
    <glyph glyph-name="title-bar" unicode="&#59072;" d="M992-128H32c-19.2 0-32 12.8-32 32V864C0 883.2 12.8 896 32 896h960c19.2 0 32-12.8 32-32v-960c0-19.2-12.8-32-32-32zM64-64h896V832H64v-896zM320 512H160c-19.2 0-32 12.8-32 32V704c0 19.2 12.8 32 32 32H320c19.2 0 32-12.8 32-32v-160c0-19.2-12.8-32-32-32zM192 576h96V672H192V576zM864 512H448c-19.2 0-32 12.8-32 32V704c0 19.2 12.8 32 32 32h416c19.2 0 32-12.8 32-32v-160c0-19.2-12.8-32-32-32z m-384 64H832V672H480V576zM864 352h-704c-19.2 0-32 12.8-32 32s12.8 32 32 32h710.4c12.8 0 25.6-12.8 25.6-32s-12.8-32-32-32zM556.8 192H160c-19.2 0-32 12.8-32 32s12.8 32 32 32h396.8c19.2 0 32-12.8 32-32s-12.8-32-32-32zM678.4 32H160c-19.2 0-32 12.8-32 32s12.8 32 32 32h524.8c19.2 0 32-12.8 32-32s-19.2-32-38.4-32z"  horiz-adv-x="1024" />

    
    <glyph glyph-name="xianshi" unicode="&#58956;" d="M984.8 428.1C902 515.8 702.2 704.2 512.3 704.2c-189.9 0-389.9-188.4-472.8-276.1-23.3-24.7-23.3-63.3 0-87.9C122.4 252.4 322.4 64 512.3 64c189.9 0 389.7 188.4 472.5 276.2 23.3 24.7 23.3 63.2 0 87.9z m-46.6-44c-41.8-44.3-107.9-108.4-185.9-162.2-42.3-29.3-83.4-52.1-121.9-67.8-42.5-17.3-82.2-26.1-118.1-26.1-35.9 0-75.7 8.8-118.2 26.1-38.6 15.7-79.6 38.5-122 67.7C194 275.7 127.8 339.8 86 384c41.8 44.3 108 108.3 186.1 162.2 42.4 29.3 83.4 52.1 122 67.7 42.5 17.3 82.3 26.1 118.2 26.1 35.9 0 75.7-8.8 118.1-26.1 38.5-15.7 79.5-38.5 121.9-67.8 78-53.6 144.2-117.7 185.9-162zM511.2 576C405.1 576 319 490 319 383.9s86-192.1 192.1-192.1 192.1 86 192.1 192.1S617.3 576 511.2 576z m90.6-282.8c-24.2-24.2-56.4-37.5-90.6-37.5-34.2 0-66.4 13.3-90.6 37.5-24.2 24.2-37.5 56.4-37.5 90.6s13.3 66.4 37.5 90.6c24.2 24.2 56.4 37.5 90.6 37.5 34.2 0 66.4-13.3 90.6-37.5 24.2-24.2 37.5-56.4 37.5-90.6s-13.3-66.4-37.5-90.6z"  horiz-adv-x="1024" />

    
    <glyph glyph-name="zhuce" unicode="&#58920;" d="M498.688 27.136v1.024h-7.68c-201.216 0-364.544 162.816-364.544 363.008 0 200.192 163.84 363.008 364.544 363.008 201.216 0 364.544-162.816 364.544-363.52l0.512-7.68h1.024c3.584-15.872 17.92-27.648 34.304-27.648 16.896 0 31.232 11.776 34.304 27.648h1.024v7.68c0 239.616-195.584 434.688-436.224 434.688S54.272 630.272 54.272 390.656c0-239.616 195.584-434.688 436.224-434.688l7.68 0.512v1.024c9.728 2.048 17.92 8.192 23.04 16.896 6.144 10.752 6.144 24.576 0 35.328-4.608 9.216-13.312 15.36-22.528 17.408zM965.632 93.184h-95.744v95.744c0 18.432-14.848 33.28-33.28 33.28s-33.28-14.848-33.28-33.28v-95.744h-95.744c-18.432 0-33.28-14.848-33.28-33.28s14.848-33.28 33.28-33.28h95.744v-95.744c0-18.432 14.848-33.28 33.28-33.28s33.28 14.848 33.28 33.28v95.744h95.744c18.432 0 33.28 14.848 33.28 33.28s-14.848 33.28-33.28 33.28zM711.68 214.528c0 79.36-43.52 150.528-113.152 187.392 26.112 26.112 41.472 61.952 41.472 99.328 0 77.824-64 141.312-142.336 141.312S354.816 579.072 354.816 501.248c0-37.376 14.848-73.216 41.472-99.328-69.632-36.864-113.664-108.032-113.664-187.392 0-8.704 6.656-15.36 15.36-15.36h35.84c4.096 0 8.704 2.048 11.264 5.12 2.56 3.072 4.096 6.656 4.096 10.752 0 74.24 56.32 136.704 130.048 144.896 2.048 0 22.016 1.536 37.376 0h1.536c72.192-10.24 126.464-72.704 126.464-144.384 0-4.096 1.536-8.192 4.096-11.264 3.072-3.072 7.168-4.608 11.264-4.608h36.352c8.704-0.512 15.36 6.144 15.36 14.848z m-134.144 286.72c0-43.52-35.84-78.848-79.872-78.848s-79.872 35.328-79.872 78.848 35.84 78.848 79.872 78.848 79.872-35.328 79.872-78.848z"  horiz-adv-x="1024" />

    
    </font>
</defs>
</svg>
